<svg class="main-svg" xmlns="http://www.w3.org/2000/svg" xmlns:xlink="http://www.w3.org/1999/xlink" width="700" height="500" style="" viewBox="0 0 700 500"><rect x="0" y="0" width="700" height="500" style="fill: rgb(255, 255, 255); fill-opacity: 1;"/><defs id="defs-abeb49"><g class="clips"/><g class="gradients"/><g class="patterns"/></defs><g class="bglayer"/><g class="layer-below"><g class="imagelayer"/><g class="shapelayer"/></g><g class="cartesianlayer"/><g class="polarlayer"/><g class="smithlayer"/><g class="ternarylayer"/><g class="geolayer"/><g class="funnelarealayer"/><g class="pielayer"/><g class="iciclelayer"/><g class="treemaplayer"/><g class="sunburstlayer"/><g class="glimages"/><g class="sankey" transform="translate(80,100)matrix(1 0 0 1 0 0)" style="box-sizing: content-box; position: absolute; left: 0px; shape-rendering: geometricprecision; pointer-events: none;"><g class="sankey-links" style="fill: none;"><path class="sankey-link" d="M20,16.93219904527919C140,16.93219904527919 140,34.33305078527566 260,34.33305078527566L260,235.0012415638028C140,235.0012415638028 140,217.60038982380632 20,217.60038982380632Z" style="stroke: rgb(68, 68, 68); stroke-opacity: 1; fill: rgb(240, 240, 245); fill-opacity: 0.65; stroke-width: 0; opacity: 1;"/><path class="sankey-link" d="M20,217.60038982380632C140,217.60038982380632 140,245.00124156380284 260,245.00124156380284L260,285.19378517826334C140,285.19378517826334 140,257.7929334382668 20,257.7929334382668Z" style="stroke: rgb(68, 68, 68); stroke-opacity: 1; fill: rgb(240, 240, 245); fill-opacity: 0.65; stroke-width: 0; opacity: 1;"/><path class="sankey-link" d="M280,34.33305078527566C400,34.33305078527566 400,-1.7053025658242404e-13 520,-1.7053025658242404e-13L520,143.76627716792612C400,143.76627716792612 400,178.09932795320196 280,178.09932795320196Z" style="stroke: rgb(68, 68, 68); stroke-opacity: 1; fill: rgb(240, 240, 245); fill-opacity: 0.65; stroke-width: 0; opacity: 1;"/><path class="sankey-link" d="M280,224.88977384355124C400,224.88977384355124 400,255.79429616934522 520,255.79429616934522L520,262.4246237112545C400,262.4246237112545 400,231.52010138546055 280,231.52010138546055Z" style="stroke: rgb(68, 68, 68); stroke-opacity: 1; fill: rgb(240, 240, 245); fill-opacity: 0.65; stroke-width: 0; opacity: 1;"/><path class="sankey-link" d="M280,234.88871965778907C400,234.88871965778907 400,299.7243525112937 520,299.7243525112937L520,299.83687441730746C400,299.83687441730746 400,235.00124156380275 280,235.00124156380275Z" style="stroke: rgb(240, 240, 245); stroke-opacity: 0.65; fill: rgb(240, 240, 245); fill-opacity: 0.65; stroke-width: 1; opacity: 1;"/><path class="sankey-link" d="M280,231.52010138546055C400,231.52010138546055 400,272.42462371125464 520,272.42462371125464L520,272.5003632239067C400,272.5003632239067 400,231.59584089811264 280,231.59584089811264Z" style="stroke: rgb(240, 240, 245); stroke-opacity: 0.65; fill: rgb(240, 240, 245); fill-opacity: 0.65; stroke-width: 1; opacity: 1;"/><path class="sankey-link" d="M280,178.09932795320196C400,178.09932795320196 400,188.2082675114794 520,188.2082675114794L520,213.00603873968146C400,213.00603873968146 400,202.89709918140403 280,202.89709918140403Z" style="stroke: rgb(68, 68, 68); stroke-opacity: 1; fill: rgb(240, 240, 245); fill-opacity: 0.65; stroke-width: 0; opacity: 1;"/><path class="sankey-link" d="M280,231.5958408981126C400,231.5958408981126 400,282.5003632239067 520,282.5003632239067L520,285.79324198358313C400,285.79324198358313 400,234.88871965778907 280,234.88871965778907Z" style="stroke: rgb(68, 68, 68); stroke-opacity: 1; fill: rgb(240, 240, 245); fill-opacity: 0.65; stroke-width: 0; opacity: 1;"/><path class="sankey-link" d="M280,202.89709918140403C400,202.89709918140403 400,223.80162150719798 520,223.80162150719798L520,245.79429616934522C400,245.79429616934522 400,224.88977384355127 280,224.88977384355127Z" style="stroke: rgb(68, 68, 68); stroke-opacity: 1; fill: rgb(240, 240, 245); fill-opacity: 0.65; stroke-width: 0; opacity: 1;"/><path class="sankey-link" d="M280,245.0012415638028C400,245.0012415638028 400,143.76627716792612 520,143.76627716792612L520,178.20826751147936C400,178.20826751147936 400,279.44323190735605 280,279.44323190735605Z" style="stroke: rgb(68, 68, 68); stroke-opacity: 1; fill: rgb(240, 240, 245); fill-opacity: 0.65; stroke-width: 0; opacity: 1;"/><path class="sankey-link" d="M280,284.1699252025832C400,284.1699252025832 400,299.8368744173074 520,299.8368744173074L520,299.96925955122845C400,299.96925955122845 400,284.30231033650426 280,284.30231033650426Z" style="stroke: rgb(240, 240, 245); stroke-opacity: 0.65; fill: rgb(240, 240, 245); fill-opacity: 0.65; stroke-width: 1; opacity: 1;"/><path class="sankey-link" d="M280,284.30231033650426C400,284.30231033650426 400,309.96925955122845 520,309.96925955122845L520,309.98337179759983C400,309.98337179759983 400,284.31642258287565 280,284.31642258287565Z" style="stroke: rgb(240, 240, 245); stroke-opacity: 0.65; fill: rgb(240, 240, 245); fill-opacity: 0.65; stroke-width: 1; opacity: 1;"/><path class="sankey-link" d="M280,284.31642258287565C400,284.31642258287565 400,319.98337179759983 520,319.98337179759983L520,320C400,320 400,284.3330507852758 280,284.3330507852758Z" style="stroke: rgb(240, 240, 245); stroke-opacity: 0.65; fill: rgb(240, 240, 245); fill-opacity: 0.65; stroke-width: 1; opacity: 1;"/><path class="sankey-link" d="M280,279.44323190735605C400,279.44323190735605 400,213.00603873968146 520,213.00603873968146L520,213.80162150719804C400,213.80162150719804 400,280.2388146748727 280,280.2388146748727Z" style="stroke: rgb(240, 240, 245); stroke-opacity: 0.65; fill: rgb(240, 240, 245); fill-opacity: 0.65; stroke-width: 1; opacity: 1;"/><path class="sankey-link" d="M280,280.23881467487263C400,280.23881467487263 400,285.79324198358313 520,285.79324198358313L520,289.72435251129366C400,289.72435251129366 400,284.16992520258316 280,284.16992520258316Z" style="stroke: rgb(68, 68, 68); stroke-opacity: 1; fill: rgb(240, 240, 245); fill-opacity: 0.65; stroke-width: 0; opacity: 1;"/></g><g class="sankey-node-set" style="cursor: move;"><g class="sankey-node" transform="translate(0.000,16.932)" style="opacity: 1;"><rect class="node-rect" width="20" height="240.86073439298767" style="stroke-width: 0.5; stroke: rgb(0, 0, 0); stroke-opacity: 1; fill: rgb(255, 243, 217); fill-opacity: 1;"/><text class="node-label" data-notex="1" x="0" y="0" text-anchor="start" transform="translate(23.25,123.93036719649383)" style="cursor: default; font-family: 'Times New Roman'; font-size: 10px; fill: rgb(42, 63, 95); fill-opacity: 1; white-space: pre; text-shadow: white 1px 1px 1px, white -1px -1px 1px, white 1px -1px 1px, white -1px 1px 1px;"></text></g><g class="sankey-node" transform="translate(260.000,34.333)" style="opacity: 1;"><rect class="node-rect" width="20" height="200.66819077852713" style="stroke-width: 0.5; stroke: rgb(0, 0, 0); stroke-opacity: 1; fill: rgb(199, 219, 244); fill-opacity: 1;"/><text class="node-label" data-notex="1" x="0" y="0" text-anchor="start" transform="translate(23.25,103.83409538926357)" style="cursor: default; font-family: 'Times New Roman'; font-size: 10px; fill: rgb(42, 63, 95); fill-opacity: 1; white-space: pre; text-shadow: white 1px 1px 1px, white -1px -1px 1px, white 1px -1px 1px, white -1px 1px 1px;"></text></g><g class="sankey-node" transform="translate(260.000,245.001)" style="opacity: 1;"><rect class="node-rect" width="20" height="40.19254361446042" style="stroke-width: 0.5; stroke: rgb(0, 0, 0); stroke-opacity: 1; fill: rgb(215, 250, 245); fill-opacity: 1;"/><text class="node-label" data-notex="1" x="0" y="0" text-anchor="start" transform="translate(23.25,23.59627180723021)" style="cursor: default; font-family: 'Times New Roman'; font-size: 10px; fill: rgb(42, 63, 95); fill-opacity: 1; white-space: pre; text-shadow: white 1px 1px 1px, white -1px -1px 1px, white 1px -1px 1px, white -1px 1px 1px;"></text></g><g class="sankey-node" transform="translate(520.000,-0.000)" style="opacity: 1;"><rect class="node-rect" width="20" height="178.20826751147956" style="stroke-width: 0.5; stroke: rgb(0, 0, 0); stroke-opacity: 1; fill: rgb(217, 240, 217); fill-opacity: 1;"/><text class="node-label" data-notex="1" x="0" y="0" text-anchor="end" transform="translate(-3.25,92.60413375573978)" style="cursor: default; font-family: 'Times New Roman'; font-size: 10px; fill: rgb(42, 63, 95); fill-opacity: 1; white-space: pre; text-shadow: white 1px 1px 1px, white -1px -1px 1px, white 1px -1px 1px, white -1px 1px 1px;"></text></g><g class="sankey-node" transform="translate(520.000,255.794)" style="opacity: 1;"><rect class="node-rect" width="20" height="6.630327541909423" style="stroke-width: 0.5; stroke: rgb(0, 0, 0); stroke-opacity: 1; fill: rgb(217, 240, 217); fill-opacity: 1;"/><text class="node-label" data-notex="1" x="0" y="0" text-anchor="end" transform="translate(-3.25,6.815163770954712)" style="cursor: default; font-family: 'Times New Roman'; font-size: 10px; fill: rgb(42, 63, 95); fill-opacity: 1; white-space: pre; text-shadow: white 1px 1px 1px, white -1px -1px 1px, white 1px -1px 1px, white -1px 1px 1px;"></text></g><g class="sankey-node" transform="translate(520.000,299.724)" style="opacity: 1;"><rect class="node-rect" width="20" height="0.5" style="stroke-width: 0.5; stroke: rgb(0, 0, 0); stroke-opacity: 1; fill: rgb(217, 240, 217); fill-opacity: 1;"/><text class="node-label" data-notex="1" x="0" y="0" text-anchor="end" transform="translate(-3.25,3.75)" style="cursor: default; font-family: 'Times New Roman'; font-size: 10px; fill: rgb(42, 63, 95); fill-opacity: 1; white-space: pre; text-shadow: white 1px 1px 1px, white -1px -1px 1px, white 1px -1px 1px, white -1px 1px 1px;"></text></g><g class="sankey-node" transform="translate(520.000,272.425)" style="opacity: 1;"><rect class="node-rect" width="20" height="0.5" style="stroke-width: 0.5; stroke: rgb(0, 0, 0); stroke-opacity: 1; fill: rgb(217, 240, 217); fill-opacity: 1;"/><text class="node-label" data-notex="1" x="0" y="0" text-anchor="end" transform="translate(-3.25,3.75)" style="cursor: default; font-family: 'Times New Roman'; font-size: 10px; fill: rgb(42, 63, 95); fill-opacity: 1; white-space: pre; text-shadow: white 1px 1px 1px, white -1px -1px 1px, white 1px -1px 1px, white -1px 1px 1px;"></text></g><g class="sankey-node" transform="translate(520.000,309.969)" style="opacity: 1;"><rect class="node-rect" width="20" height="0.5" style="stroke-width: 0.5; stroke: rgb(0, 0, 0); stroke-opacity: 1; fill: rgb(217, 240, 217); fill-opacity: 1;"/><text class="node-label" data-notex="1" x="0" y="0" text-anchor="end" transform="translate(-3.25,3.75)" style="cursor: default; font-family: 'Times New Roman'; font-size: 10px; fill: rgb(42, 63, 95); fill-opacity: 1; white-space: pre; text-shadow: white 1px 1px 1px, white -1px -1px 1px, white 1px -1px 1px, white -1px 1px 1px;"></text></g><g class="sankey-node" transform="translate(520.000,319.983)" style="opacity: 1;"><rect class="node-rect" width="20" height="0.5" style="stroke-width: 0.5; stroke: rgb(0, 0, 0); stroke-opacity: 1; fill: rgb(217, 240, 217); fill-opacity: 1;"/><text class="node-label" data-notex="1" x="0" y="0" text-anchor="end" transform="translate(-3.25,3.75)" style="cursor: default; font-family: 'Times New Roman'; font-size: 10px; fill: rgb(42, 63, 95); fill-opacity: 1; white-space: pre; text-shadow: white 1px 1px 1px, white -1px -1px 1px, white 1px -1px 1px, white -1px 1px 1px;"></text></g><g class="sankey-node" transform="translate(520.000,188.208)" style="opacity: 1;"><rect class="node-rect" width="20" height="25.593353995718587" style="stroke-width: 0.5; stroke: rgb(0, 0, 0); stroke-opacity: 1; fill: rgb(217, 240, 217); fill-opacity: 1;"/><text class="node-label" data-notex="1" x="0" y="0" text-anchor="end" transform="translate(-3.25,16.296676997859294)" style="cursor: default; font-family: 'Times New Roman'; font-size: 10px; fill: rgb(42, 63, 95); fill-opacity: 1; white-space: pre; text-shadow: white 1px 1px 1px, white -1px -1px 1px, white 1px -1px 1px, white -1px 1px 1px;"></text></g><g class="sankey-node" transform="translate(520.000,282.500)" style="opacity: 1;"><rect class="node-rect" width="20" height="7.223989287387042" style="stroke-width: 0.5; stroke: rgb(0, 0, 0); stroke-opacity: 1; fill: rgb(247, 145, 116); fill-opacity: 1;"/><text class="node-label" data-notex="1" x="0" y="0" text-anchor="end" transform="translate(-3.25,7.111994643693521)" style="cursor: default; font-family: 'Times New Roman'; font-size: 10px; fill: rgb(42, 63, 95); fill-opacity: 1; white-space: pre; text-shadow: white 1px 1px 1px, white -1px -1px 1px, white 1px -1px 1px, white -1px 1px 1px;"></text></g><g class="sankey-node" transform="translate(520.000,223.802)" style="opacity: 1;"><rect class="node-rect" width="20" height="21.992674662147238" style="stroke-width: 0.5; stroke: rgb(0, 0, 0); stroke-opacity: 1; fill: rgb(192, 232, 131); fill-opacity: 1;"/><text class="node-label" data-notex="1" x="0" y="0" text-anchor="end" transform="translate(-3.25,14.496337331073619)" style="cursor: default; font-family: 'Times New Roman'; font-size: 10px; fill: rgb(42, 63, 95); fill-opacity: 1; white-space: pre; text-shadow: white 1px 1px 1px, white -1px -1px 1px, white 1px -1px 1px, white -1px 1px 1px;"></text></g></g></g><defs id="topdefs-abeb49"><g class="clips"/></defs><g class="layer-above"><g class="imagelayer"/><g class="shapelayer"/></g><g class="infolayer"><g class="g-gtitle"/><g class="first-render"/></g></svg>