<?xml version="1.0" encoding="UTF-8" standalone="no"?>
<!-- Created with Inkscape (http://www.inkscape.org/) -->

<svg
   width="125.70033mm"
   height="127.31989mm"
   viewBox="0 0 125.70033 127.31987"
   version="1.1"
   id="svg5"
   xml:space="preserve"
   inkscape:version="1.2 (dc2aeda, 2022-05-15)"
   sodipodi:docname="RICE_logo.svg"
   xmlns:inkscape="http://www.inkscape.org/namespaces/inkscape"
   xmlns:sodipodi="http://sodipodi.sourceforge.net/DTD/sodipodi-0.dtd"
   xmlns="http://www.w3.org/2000/svg"
   xmlns:svg="http://www.w3.org/2000/svg"><sodipodi:namedview
     id="namedview7"
     pagecolor="#505050"
     bordercolor="#eeeeee"
     borderopacity="1"
     inkscape:showpageshadow="0"
     inkscape:pageopacity="0"
     inkscape:pagecheckerboard="0"
     inkscape:deskcolor="#505050"
     inkscape:document-units="mm"
     showgrid="false"
     inkscape:zoom="0.4896223"
     inkscape:cx="251.21405"
     inkscape:cy="105.18312"
     inkscape:window-width="1507"
     inkscape:window-height="593"
     inkscape:window-x="1831"
     inkscape:window-y="291"
     inkscape:window-maximized="0"
     inkscape:current-layer="layer1" /><defs
     id="defs2" /><g
     inkscape:label="Layer 1"
     inkscape:groupmode="layer"
     id="layer1"
     transform="translate(-30.261421,-18.373006)"><g
       id="g2845"
       transform="translate(13.510585,-7.5386019)"><path
         id="ellipse356"
         style="fill:#333333;fill-opacity:1;stroke:none;stroke-width:0.49124;stroke-linecap:round;stop-color:#000000"
         d="M 130.5972,74.654358 H 23.644552 A 53.629143,36.979794 0 0 0 77.120874,108.89206 53.629143,36.979794 0 0 0 130.5972,74.654358 Z" /><ellipse
         style="fill:#800000;fill-opacity:1;stroke:none;stroke-width:0.344333;stroke-linecap:round;stop-color:#000000"
         id="ellipse358"
         cx="77.0923"
         cy="74.654366"
         rx="53.438984"
         ry="18.233772" /><ellipse
         style="fill:#a40000;fill-opacity:1;stroke:none;stroke-width:0.327995;stroke-linecap:round;stop-color:#000000"
         id="ellipse472"
         cx="77.120842"
         cy="74.654366"
         rx="52.270649"
         ry="16.91416" /><path
         id="path2111"
         style="fill:#eeece0;fill-opacity:1;stroke:none;stroke-width:0.3;stroke-linecap:round;stop-color:#000000"
         d="m 76.910034,54.534139 c -0.293122,0.0086 -0.52215,0.0798 -0.669726,0.227376 -3.18948,3.189479 -3.739459,-0.517647 -5.611544,1.35444 -0.609566,0.609564 -1.349637,1.235218 -2.179712,1.867586 a 52.270649,16.91416 0 0 1 1.848983,-0.0987 52.270649,16.91416 0 0 1 1.533239,-0.05684 52.270649,16.91416 0 0 0 -1.533239,0.05684 52.270649,16.91416 0 0 0 -1.848983,0.0987 c -5.126529,3.905488 -13.825594,8.069833 -18.331698,10.322884 -3.12014,1.560069 -6.403621,0.01848 -8.707479,2.322339 -0.764866,0.764869 1.020093,1.495001 0.19327,2.321822 -0.15304,0.15304 -1.882391,-2.348265 -3.095935,-1.741496 -4.999046,2.499526 -7.068229,7.922397 -6.579443,11.416874 0.05377,0.21509 0.124417,0.424839 0.206189,0.631486 a 52.270649,16.91416 0 0 0 1.525488,0.79375 52.270649,16.91416 0 0 0 1.992127,0.899687 52.270649,16.91416 0 0 0 2.169893,0.855762 52.270649,16.91416 0 0 0 2.338359,0.807702 52.270649,16.91416 0 0 0 2.496488,0.756543 52.270649,16.91416 0 0 0 2.644283,0.702283 52.270649,16.91416 0 0 0 2.780192,0.644922 52.270649,16.91416 0 0 0 2.904732,0.58446 52.270649,16.91416 0 0 0 3.016354,0.521416 52.270649,16.91416 0 0 0 3.116089,0.456819 52.270649,16.91416 0 0 0 3.200838,0.390157 52.270649,16.91416 0 0 0 3.273185,0.321428 52.270649,16.91416 0 0 0 3.33158,0.251147 52.270649,16.91416 0 0 0 3.374471,0.180351 52.270649,16.91416 0 0 0 3.403926,0.10852 52.270649,16.91416 0 0 0 2.797762,0.02946 c 21.367492,-1.102012 43.437757,-5.418364 48.696767,-10.677384 1.00452,-1.004517 -2.21287,-0.993042 -1.93528,-1.548226 0.46384,-0.927669 2.72306,-1.906912 2.12855,-3.095935 -2.43877,-4.877522 -12.09392,-7.289027 -16.83463,-10.449492 -2.8867,-1.924459 -8.54678,-4.273392 -11.223087,-5.611544 -1.267281,-0.633641 -7.002309,0.562678 -10.062434,-0.967382 -0.394023,-0.197012 -1.249807,-0.689146 -2.30942,-1.279509 -2.498246,-1.391895 -6.173392,-3.347791 -7.920447,-3.398242 -0.04443,-0.0013 -0.08783,-0.0012 -0.129708,0 z m 0.21084,3.206006 a 52.270649,16.91416 0 0 0 -1.46606,0.0078 52.270649,16.91416 0 0 1 1.46606,-0.0078 z m -1.941484,0.0124 a 52.270649,16.91416 0 0 0 -1.477429,0.02377 52.270649,16.91416 0 0 0 -1.564762,0.04186 52.270649,16.91416 0 0 1 1.564762,-0.04186 52.270649,16.91416 0 0 1 1.477429,-0.02377 z" /></g><path
       id="path7187"
       style="fill:#333333;fill-opacity:1;stroke:none;stroke-width:0.541872;stroke-linecap:round;stop-color:#000000"
       d="m 150.46106,27.190294 -42.31783,45.481462 c 0.16685,0.03523 0.3335,0.06805 0.50023,0.104903 0.0831,0.01837 0.16554,0.0396 0.24856,0.05839 L 153.5818,31.985863 Z" /><path
       id="path7190"
       style="fill:#333333;fill-opacity:1;stroke:none;stroke-width:0.541872;stroke-linecap:round;stop-color:#000000"
       d="m 142.73726,22.188017 -36.37583,49.360978 c -0.0158,-0.05166 -0.0313,-0.103187 -0.0474,-0.154676 -0.0282,-0.09065 -0.0568,-0.181175 -0.0858,-0.271274 -0.029,-0.0901 -0.0586,-0.180177 -0.0883,-0.269677 -0.0187,-0.0562 -0.0379,-0.111988 -0.0569,-0.167935 l 31.36376,-50.676021 z" /><path
       style="fill:#eeece0;fill-opacity:1;stroke:#d2ceae;stroke-width:2.1;stroke-linecap:round;stroke-dasharray:none;stroke-opacity:1;stop-color:#000000"
       d="m 102.91036,69.86338 c 3.44385,0.361722 5.07726,3.259119 8.01654,3.626527"
       id="path7256" /><text
       xml:space="preserve"
       style="font-size:50.8px;font-family:Arial;-inkscape-font-specification:Arial;text-align:center;text-anchor:middle;fill:#eeece0;fill-opacity:1;stroke:#333333;stroke-width:1;stroke-linecap:round;stroke-dasharray:none;stroke-opacity:1;stop-color:#000000"
       x="90.482635"
       y="141.80241"
       id="text15706"><tspan
         sodipodi:role="line"
         id="tspan15704"
         style="font-style:normal;font-variant:normal;font-weight:normal;font-stretch:normal;font-size:50.8px;font-family:Menlo;-inkscape-font-specification:Menlo;stroke:#333333;stroke-width:1;stroke-dasharray:none"
         x="90.482635"
         y="141.80241">RICE</tspan></text></g></svg>
