<svg class="main-svg" xmlns="http://www.w3.org/2000/svg" xmlns:xlink="http://www.w3.org/1999/xlink" width="700" height="500" style="" viewBox="0 0 700 500"><rect x="0" y="0" width="700" height="500" style="fill: rgb(255, 255, 255); fill-opacity: 1;"/><defs id="defs-218a3a"><g class="clips"/><g class="gradients"/><g class="patterns"/></defs><g class="bglayer"/><g class="layer-below"><g class="imagelayer"/><g class="shapelayer"/></g><g class="cartesianlayer"/><g class="polarlayer"/><g class="smithlayer"/><g class="ternarylayer"/><g class="geolayer"/><g class="funnelarealayer"/><g class="pielayer"/><g class="iciclelayer"/><g class="treemaplayer"/><g class="sunburstlayer"/><g class="glimages"/><g class="sankey" transform="translate(80,100)matrix(1 0 0 1 0 0)" style="box-sizing: content-box; position: absolute; left: 0px; shape-rendering: geometricprecision; pointer-events: none;"><g class="sankey-links" style="fill: none;"><path class="sankey-link" d="M20,50.80624385364548C75,50.80624385364548 75,61.1599794961691 130,61.1599794961691L130,227.78588577703056C75,227.78588577703056 75,217.43215013450697 20,217.43215013450697Z" style="stroke: rgb(68, 68, 68); stroke-opacity: 1; fill: rgb(240, 240, 245); fill-opacity: 0.65; stroke-width: 0; opacity: 1;"/><path class="sankey-link" d="M20,217.43215013450697C75,217.43215013450697 75,237.78588577703061 130,237.78588577703061L130,271.1599794961691C75,271.1599794961691 75,250.80624385364547 20,250.80624385364547Z" style="stroke: rgb(68, 68, 68); stroke-opacity: 1; fill: rgb(240, 240, 245); fill-opacity: 0.65; stroke-width: 0; opacity: 1;"/><path class="sankey-link" d="M150,61.15997949616911C205,61.15997949616911 205,1.0658141036401503e-13 260,1.0658141036401503e-13L260,121.81336505024433C205,121.81336505024433 205,182.97334454641333 150,182.97334454641333Z" style="stroke: rgb(68, 68, 68); stroke-opacity: 1; fill: rgb(240, 240, 245); fill-opacity: 0.65; stroke-width: 0; opacity: 1;"/><path class="sankey-link" d="M150,221.82604173532593C205,221.82604173532593 205,200.66606223915687 260,200.66606223915687L260,206.4613548317559C205,206.4613548317559 205,227.62133432792496 150,227.62133432792496Z" style="stroke: rgb(68, 68, 68); stroke-opacity: 1; fill: rgb(240, 240, 245); fill-opacity: 0.65; stroke-width: 0; opacity: 1;"/><path class="sankey-link" d="M150,227.62133432792496C205,227.62133432792496 205,216.4613548317559 260,216.4613548317559L260,216.5275555788329C205,216.5275555788329 205,227.68753507500196 150,227.68753507500196Z" style="stroke: rgb(240, 240, 245); stroke-opacity: 0.65; fill: rgb(240, 240, 245); fill-opacity: 0.65; stroke-width: 1; opacity: 1;"/><path class="sankey-link" d="M150,227.68753507500196C205,227.68753507500196 205,226.5275555788329 260,226.5275555788329L260,226.6259062808615C205,226.6259062808615 205,227.78588577703056 150,227.78588577703056Z" style="stroke: rgb(240, 240, 245); stroke-opacity: 0.65; fill: rgb(240, 240, 245); fill-opacity: 0.65; stroke-width: 1; opacity: 1;"/><path class="sankey-link" d="M150,182.97334454641333C205,182.97334454641333 205,131.81336505024433 260,131.81336505024433L260,152.40432711859216C205,152.40432711859216 205,203.56430661476116 150,203.56430661476116Z" style="stroke: rgb(68, 68, 68); stroke-opacity: 1; fill: rgb(240, 240, 245); fill-opacity: 0.65; stroke-width: 0; opacity: 1;"/><path class="sankey-link" d="M150,203.56430661476116C205,203.56430661476116 205,162.40432711859216 260,162.40432711859216L260,174.270891773539C205,174.270891773539 205,215.430871269708 150,215.430871269708Z" style="stroke: rgb(68, 68, 68); stroke-opacity: 1; fill: rgb(240, 240, 245); fill-opacity: 0.65; stroke-width: 0; opacity: 1;"/><path class="sankey-link" d="M150,215.430871269708C205,215.430871269708 205,184.270891773539 260,184.270891773539L260,190.66606223915693C205,190.66606223915693 205,221.82604173532593 150,221.82604173532593Z" style="stroke: rgb(68, 68, 68); stroke-opacity: 1; fill: rgb(240, 240, 245); fill-opacity: 0.65; stroke-width: 0; opacity: 1;"/><path class="sankey-link" d="M150,237.78588577703061C205,237.78588577703061 205,236.6259062808615 260,236.6259062808615L260,268.40267409313947C205,268.40267409313947 205,269.5626535893086 150,269.5626535893086Z" style="stroke: rgb(68, 68, 68); stroke-opacity: 1; fill: rgb(240, 240, 245); fill-opacity: 0.65; stroke-width: 0; opacity: 1;"/><path class="sankey-link" d="M150,271.01739823226234C205,271.01739823226234 205,299.8574187360932 260,299.8574187360932L260,299.86975366168235C205,299.86975366168235 205,271.02973315785147 150,271.02973315785147Z" style="stroke: rgb(240, 240, 245); stroke-opacity: 0.65; fill: rgb(240, 240, 245); fill-opacity: 0.65; stroke-width: 1; opacity: 1;"/><path class="sankey-link" d="M150,271.02973315785147C205,271.02973315785147 205,309.86975366168235 260,309.86975366168235L260,309.8842876794347C205,309.8842876794347 205,271.0442671756038 150,271.0442671756038Z" style="stroke: rgb(240, 240, 245); stroke-opacity: 0.65; fill: rgb(240, 240, 245); fill-opacity: 0.65; stroke-width: 1; opacity: 1;"/><path class="sankey-link" d="M150,271.04426717560375C205,271.04426717560375 205,319.88428767943464 260,319.88428767943464L260,319.99999999999994C205,319.99999999999994 205,271.15997949616906 150,271.15997949616906Z" style="stroke: rgb(240, 240, 245); stroke-opacity: 0.65; fill: rgb(240, 240, 245); fill-opacity: 0.65; stroke-width: 1; opacity: 1;"/><path class="sankey-link" d="M150,269.5626535893086C205,269.5626535893086 205,278.40267409313947 260,278.40267409313947L260,279.0632905024696C205,279.0632905024696 205,270.2232699986387 150,270.2232699986387Z" style="stroke: rgb(240, 240, 245); stroke-opacity: 0.65; fill: rgb(240, 240, 245); fill-opacity: 0.65; stroke-width: 1; opacity: 1;"/><path class="sankey-link" d="M150,270.2232699986387C205,270.2232699986387 205,289.0632905024696 260,289.0632905024696L260,289.8574187360932C205,289.8574187360932 205,271.01739823226234 150,271.01739823226234Z" style="stroke: rgb(240, 240, 245); stroke-opacity: 0.65; fill: rgb(240, 240, 245); fill-opacity: 0.65; stroke-width: 1; opacity: 1;"/><path class="sankey-link" d="M280,1.0658141036401503e-13C335,1.0658141036401503e-13 335,51.57345409815297 390,51.57345409815297L390,173.3868191483972C335,173.3868191483972 335,121.81336505024433 280,121.81336505024433Z" style="stroke: rgb(68, 68, 68); stroke-opacity: 1; fill: rgb(240, 240, 245); fill-opacity: 0.65; stroke-width: 0; opacity: 1;"/><path class="sankey-link" d="M280,200.66606223915687C335,200.66606223915687 335,212.2395163373098 390,212.2395163373098L390,218.03480892990882C335,218.03480892990882 335,206.4613548317559 280,206.4613548317559Z" style="stroke: rgb(68, 68, 68); stroke-opacity: 1; fill: rgb(240, 240, 245); fill-opacity: 0.65; stroke-width: 0; opacity: 1;"/><path class="sankey-link" d="M280,216.4613548317559C335,216.4613548317559 335,218.03480892990882 390,218.03480892990882L390,218.10100967698583C335,218.10100967698583 335,216.5275555788329 280,216.5275555788329Z" style="stroke: rgb(240, 240, 245); stroke-opacity: 0.65; fill: rgb(240, 240, 245); fill-opacity: 0.65; stroke-width: 1; opacity: 1;"/><path class="sankey-link" d="M280,226.5275555788329C335,226.5275555788329 335,218.10100967698583 390,218.10100967698583L390,218.19936037901442C335,218.19936037901442 335,226.6259062808615 280,226.6259062808615Z" style="stroke: rgb(240, 240, 245); stroke-opacity: 0.65; fill: rgb(240, 240, 245); fill-opacity: 0.65; stroke-width: 1; opacity: 1;"/><path class="sankey-link" d="M280,131.81336505024433C335,131.81336505024433 335,173.3868191483972 390,173.3868191483972L390,193.97778121674503C335,193.97778121674503 335,152.40432711859216 280,152.40432711859216Z" style="stroke: rgb(68, 68, 68); stroke-opacity: 1; fill: rgb(240, 240, 245); fill-opacity: 0.65; stroke-width: 0; opacity: 1;"/><path class="sankey-link" d="M280,162.40432711859216C335,162.40432711859216 335,193.97778121674503 390,193.97778121674503L390,205.84434587169187C335,205.84434587169187 335,174.270891773539 280,174.270891773539Z" style="stroke: rgb(68, 68, 68); stroke-opacity: 1; fill: rgb(240, 240, 245); fill-opacity: 0.65; stroke-width: 0; opacity: 1;"/><path class="sankey-link" d="M280,184.270891773539C335,184.270891773539 335,205.84434587169187 390,205.84434587169187L390,212.2395163373098C335,212.2395163373098 335,190.66606223915693 280,190.66606223915693Z" style="stroke: rgb(68, 68, 68); stroke-opacity: 1; fill: rgb(240, 240, 245); fill-opacity: 0.65; stroke-width: 0; opacity: 1;"/><path class="sankey-link" d="M280,236.6259062808615C335,236.6259062808615 335,228.19936037901448 390,228.19936037901448L390,259.97612819129245C335,259.97612819129245 335,268.40267409313947 280,268.40267409313947Z" style="stroke: rgb(68, 68, 68); stroke-opacity: 1; fill: rgb(240, 240, 245); fill-opacity: 0.65; stroke-width: 0; opacity: 1;"/><path class="sankey-link" d="M280,299.8574187360932C335,299.8574187360932 335,261.4308728342462 390,261.4308728342462L390,261.44320775983533C335,261.44320775983533 335,299.86975366168235 280,299.86975366168235Z" style="stroke: rgb(240, 240, 245); stroke-opacity: 0.65; fill: rgb(240, 240, 245); fill-opacity: 0.65; stroke-width: 1; opacity: 1;"/><path class="sankey-link" d="M280,309.86975366168235C335,309.86975366168235 335,261.44320775983533 390,261.44320775983533L390,261.45774177758767C335,261.45774177758767 335,309.8842876794347 280,309.8842876794347Z" style="stroke: rgb(240, 240, 245); stroke-opacity: 0.65; fill: rgb(240, 240, 245); fill-opacity: 0.65; stroke-width: 1; opacity: 1;"/><path class="sankey-link" d="M280,319.88428767943464C335,319.88428767943464 335,261.4577417775876 390,261.4577417775876L390,261.5734540981529C335,261.5734540981529 335,319.99999999999994 280,319.99999999999994Z" style="stroke: rgb(240, 240, 245); stroke-opacity: 0.65; fill: rgb(240, 240, 245); fill-opacity: 0.65; stroke-width: 1; opacity: 1;"/><path class="sankey-link" d="M280,278.40267409313947C335,278.40267409313947 335,259.97612819129245 390,259.97612819129245L390,260.6367446006226C335,260.6367446006226 335,279.0632905024696 280,279.0632905024696Z" style="stroke: rgb(240, 240, 245); stroke-opacity: 0.65; fill: rgb(240, 240, 245); fill-opacity: 0.65; stroke-width: 1; opacity: 1;"/><path class="sankey-link" d="M280,289.0632905024696C335,289.0632905024696 335,260.6367446006226 390,260.6367446006226L390,261.4308728342462C335,261.4308728342462 335,289.8574187360932 280,289.8574187360932Z" style="stroke: rgb(240, 240, 245); stroke-opacity: 0.65; fill: rgb(240, 240, 245); fill-opacity: 0.65; stroke-width: 1; opacity: 1;"/><path class="sankey-link" d="M410,51.57345409815297C465,51.57345409815297 465,72.24066919861156 520,72.24066919861156L520,191.6177669478509C465,191.6177669478509 465,170.95055184739232 410,170.95055184739232Z" style="stroke: rgb(68, 68, 68); stroke-opacity: 1; fill: rgb(240, 240, 245); fill-opacity: 0.65; stroke-width: 0; opacity: 1;"/><path class="sankey-link" d="M410,191.54151391574015C465,191.54151391574015 465,261.468436456579 520,261.468436456579L520,266.97396441954805C465,266.97396441954805 465,197.04704187870925 410,197.04704187870925Z" style="stroke: rgb(68, 68, 68); stroke-opacity: 1; fill: rgb(240, 240, 245); fill-opacity: 0.65; stroke-width: 0; opacity: 1;"/><path class="sankey-link" d="M410,199.84419209152253C465,199.84419209152253 465,299.7711146323614 520,299.7711146323614L520,299.8645477992886C465,299.8645477992886 465,199.9376252584497 410,199.9376252584497Z" style="stroke: rgb(240, 240, 245); stroke-opacity: 0.65; fill: rgb(240, 240, 245); fill-opacity: 0.65; stroke-width: 1; opacity: 1;"/><path class="sankey-link" d="M410,199.78130138179938C465,199.78130138179938 465,289.70822392263824 520,289.70822392263824L520,289.77111463236133C465,289.77111463236133 465,199.84419209152253 410,199.84419209152253Z" style="stroke: rgb(240, 240, 245); stroke-opacity: 0.65; fill: rgb(240, 240, 245); fill-opacity: 0.65; stroke-width: 1; opacity: 1;"/><path class="sankey-link" d="M410,170.95055184739232C465,170.95055184739232 465,230.21685797890112 520,230.21685797890112L520,250.80782004724895C465,250.80782004724895 465,191.54151391574015 410,191.54151391574015Z" style="stroke: rgb(68, 68, 68); stroke-opacity: 1; fill: rgb(240, 240, 245); fill-opacity: 0.65; stroke-width: 0; opacity: 1;"/><path class="sankey-link" d="M410,197.04704187870925C465,197.04704187870925 465,276.9739644195481 520,276.9739644195481L520,279.70822392263824C465,279.70822392263824 465,199.78130138179938 410,199.78130138179938Z" style="stroke: rgb(68, 68, 68); stroke-opacity: 1; fill: rgb(240, 240, 245); fill-opacity: 0.65; stroke-width: 0; opacity: 1;"/><path class="sankey-link" d="M410,228.19936037901448C465,228.19936037901448 465,191.6177669478509 520,191.6177669478509L520,220.2168579789011C465,220.2168579789011 465,256.7984514100647 410,256.7984514100647Z" style="stroke: rgb(68, 68, 68); stroke-opacity: 1; fill: rgb(240, 240, 245); fill-opacity: 0.65; stroke-width: 0; opacity: 1;"/><path class="sankey-link" d="M410,257.4590678193948C465,257.4590678193948 465,299.8645477992886 520,299.8645477992886L520,299.97447450382566C465,299.97447450382566 465,257.5689945239319 410,257.5689945239319Z" style="stroke: rgb(240, 240, 245); stroke-opacity: 0.65; fill: rgb(240, 240, 245); fill-opacity: 0.65; stroke-width: 1; opacity: 1;"/><path class="sankey-link" d="M410,257.5689945239319C465,257.5689945239319 465,309.97447450382566 520,309.97447450382566L520,309.98619268313536C465,309.98619268313536 465,257.5807127032416 410,257.5807127032416Z" style="stroke: rgb(240, 240, 245); stroke-opacity: 0.65; fill: rgb(240, 240, 245); fill-opacity: 0.65; stroke-width: 1; opacity: 1;"/><path class="sankey-link" d="M410,257.58071270324155C465,257.58071270324155 465,319.9861926831353 520,319.9861926831353L520,320C465,320 465,257.59452002010624 410,257.59452002010624Z" style="stroke: rgb(240, 240, 245); stroke-opacity: 0.65; fill: rgb(240, 240, 245); fill-opacity: 0.65; stroke-width: 1; opacity: 1;"/><path class="sankey-link" d="M410,256.7984514100647C465,256.7984514100647 465,250.80782004724895 520,250.80782004724895L520,251.4684364565791C465,251.4684364565791 465,257.4590678193948 410,257.4590678193948Z" style="stroke: rgb(240, 240, 245); stroke-opacity: 0.65; fill: rgb(240, 240, 245); fill-opacity: 0.65; stroke-width: 1; opacity: 1;"/></g><g class="sankey-node-set" style="cursor: move;"><g class="sankey-node" transform="translate(0.000,50.806)" style="opacity: 1;"><rect class="node-rect" width="20" height="200.00000000000006" style="stroke-width: 0; stroke: rgb(0, 0, 0); stroke-opacity: 1; fill: rgb(250, 240, 230); fill-opacity: 1;"/><text class="node-label" data-notex="1" x="0" y="0" text-anchor="start" transform="translate(23,103.50000000000003)" style="cursor: default; font-family: 'Open Sans', verdana, arial, sans-serif; font-size: 10px; fill: rgb(42, 63, 95); fill-opacity: 1; white-space: pre; text-shadow: white 1px 1px 1px, white -1px -1px 1px, white 1px -1px 1px, white -1px 1px 1px;">PV Waste</text></g><g class="sankey-node" transform="translate(130.000,61.160)" style="opacity: 1;"><rect class="node-rect" width="20" height="166.6259062808615" style="stroke-width: 0; stroke: rgb(0, 0, 0); stroke-opacity: 1; fill: rgb(135, 206, 250); fill-opacity: 1;"/><text class="node-label" data-notex="1" x="0" y="0" text-anchor="start" transform="translate(23,86.81295314043075)" style="cursor: default; font-family: 'Open Sans', verdana, arial, sans-serif; font-size: 10px; fill: rgb(42, 63, 95); fill-opacity: 1; white-space: pre; text-shadow: white 1px 1px 1px, white -1px -1px 1px, white 1px -1px 1px, white -1px 1px 1px;">cSi</text></g><g class="sankey-node" transform="translate(130.000,237.786)" style="opacity: 1;"><rect class="node-rect" width="20" height="33.37409371913856" style="stroke-width: 0; stroke: rgb(0, 0, 0); stroke-opacity: 1; fill: rgb(102, 205, 170); fill-opacity: 1;"/><text class="node-label" data-notex="1" x="0" y="0" text-anchor="start" transform="translate(23,20.18704685956928)" style="cursor: default; font-family: 'Open Sans', verdana, arial, sans-serif; font-size: 10px; fill: rgb(42, 63, 95); fill-opacity: 1; white-space: pre; text-shadow: white 1px 1px 1px, white -1px -1px 1px, white 1px -1px 1px, white -1px 1px 1px;">CdTe</text></g><g class="sankey-node" transform="translate(260.000,0.000)" style="opacity: 1;"><rect class="node-rect" width="20" height="121.81336505024422" style="stroke-width: 0; stroke: rgb(0, 0, 0); stroke-opacity: 1; fill: rgb(135, 206, 250); fill-opacity: 1;"/><text class="node-label" data-notex="1" x="0" y="0" text-anchor="start" transform="translate(23,64.40668252512211)" style="cursor: default; font-family: 'Open Sans', verdana, arial, sans-serif; font-size: 10px; fill: rgb(42, 63, 95); fill-opacity: 1; white-space: pre; text-shadow: white 1px 1px 1px, white -1px -1px 1px, white 1px -1px 1px, white -1px 1px 1px;">Glass</text></g><g class="sankey-node" transform="translate(260.000,200.666)" style="opacity: 1;"><rect class="node-rect" width="20" height="5.795292592599026" style="stroke-width: 0; stroke: rgb(0, 0, 0); stroke-opacity: 1; fill: rgb(135, 206, 250); fill-opacity: 1;"/><text class="node-label" data-notex="1" x="0" y="0" text-anchor="start" transform="translate(23,6.397646296299513)" style="cursor: default; font-family: 'Open Sans', verdana, arial, sans-serif; font-size: 10px; fill: rgb(42, 63, 95); fill-opacity: 1; white-space: pre; text-shadow: white 1px 1px 1px, white -1px -1px 1px, white 1px -1px 1px, white -1px 1px 1px;">Silicon</text></g><g class="sankey-node" transform="translate(260.000,216.461)" style="opacity: 1;"><rect class="node-rect" width="20" height="0.5" style="stroke-width: 0; stroke: rgb(0, 0, 0); stroke-opacity: 1; fill: rgb(135, 206, 250); fill-opacity: 1;"/><text class="node-label" data-notex="1" x="0" y="0" text-anchor="start" transform="translate(23,3.75)" style="cursor: default; font-family: 'Open Sans', verdana, arial, sans-serif; font-size: 10px; fill: rgb(42, 63, 95); fill-opacity: 1; white-space: pre; text-shadow: white 1px 1px 1px, white -1px -1px 1px, white 1px -1px 1px, white -1px 1px 1px;">Silver</text></g><g class="sankey-node" transform="translate(260.000,226.528)" style="opacity: 1;"><rect class="node-rect" width="20" height="0.5" style="stroke-width: 0; stroke: rgb(0, 0, 0); stroke-opacity: 1; fill: rgb(135, 206, 250); fill-opacity: 1;"/><text class="node-label" data-notex="1" x="0" y="0" text-anchor="start" transform="translate(23,3.75)" style="cursor: default; font-family: 'Open Sans', verdana, arial, sans-serif; font-size: 10px; fill: rgb(42, 63, 95); fill-opacity: 1; white-space: pre; text-shadow: white 1px 1px 1px, white -1px -1px 1px, white 1px -1px 1px, white -1px 1px 1px;">Copper</text></g><g class="sankey-node" transform="translate(260.000,131.813)" style="opacity: 1;"><rect class="node-rect" width="20" height="20.590962068347835" style="stroke-width: 0; stroke: rgb(0, 0, 0); stroke-opacity: 1; fill: rgb(135, 206, 250); fill-opacity: 1;"/><text class="node-label" data-notex="1" x="0" y="0" text-anchor="start" transform="translate(23,13.795481034173918)" style="cursor: default; font-family: 'Open Sans', verdana, arial, sans-serif; font-size: 10px; fill: rgb(42, 63, 95); fill-opacity: 1; white-space: pre; text-shadow: white 1px 1px 1px, white -1px -1px 1px, white 1px -1px 1px, white -1px 1px 1px;">Aluminum frames</text></g><g class="sankey-node" transform="translate(260.000,162.404)" style="opacity: 1;"><rect class="node-rect" width="20" height="11.866564654946842" style="stroke-width: 0; stroke: rgb(0, 0, 0); stroke-opacity: 1; fill: rgb(135, 206, 250); fill-opacity: 1;"/><text class="node-label" data-notex="1" x="0" y="0" text-anchor="start" transform="translate(23,9.433282327473421)" style="cursor: default; font-family: 'Open Sans', verdana, arial, sans-serif; font-size: 10px; fill: rgb(42, 63, 95); fill-opacity: 1; white-space: pre; text-shadow: white 1px 1px 1px, white -1px -1px 1px, white 1px -1px 1px, white -1px 1px 1px;">Encapsulant</text></g><g class="sankey-node" transform="translate(260.000,184.271)" style="opacity: 1;"><rect class="node-rect" width="20" height="6.395170465617866" style="stroke-width: 0; stroke: rgb(0, 0, 0); stroke-opacity: 1; fill: rgb(135, 206, 250); fill-opacity: 1;"/><text class="node-label" data-notex="1" x="0" y="0" text-anchor="start" transform="translate(23,6.697585232808933)" style="cursor: default; font-family: 'Open Sans', verdana, arial, sans-serif; font-size: 10px; fill: rgb(42, 63, 95); fill-opacity: 1; white-space: pre; text-shadow: white 1px 1px 1px, white -1px -1px 1px, white 1px -1px 1px, white -1px 1px 1px;">Backsheet</text></g><g class="sankey-node" transform="translate(260.000,236.626)" style="opacity: 1;"><rect class="node-rect" width="20" height="31.776767812277967" style="stroke-width: 0; stroke: rgb(0, 0, 0); stroke-opacity: 1; fill: rgb(102, 205, 170); fill-opacity: 1;"/><text class="node-label" data-notex="1" x="0" y="0" text-anchor="start" transform="translate(23,19.388383906138984)" style="cursor: default; font-family: 'Open Sans', verdana, arial, sans-serif; font-size: 10px; fill: rgb(42, 63, 95); fill-opacity: 1; white-space: pre; text-shadow: white 1px 1px 1px, white -1px -1px 1px, white 1px -1px 1px, white -1px 1px 1px;">Glass</text></g><g class="sankey-node" transform="translate(260.000,299.857)" style="opacity: 1;"><rect class="node-rect" width="20" height="0.5" style="stroke-width: 0; stroke: rgb(0, 0, 0); stroke-opacity: 1; fill: rgb(102, 205, 170); fill-opacity: 1;"/><text class="node-label" data-notex="1" x="0" y="0" text-anchor="start" transform="translate(23,3.75)" style="cursor: default; font-family: 'Open Sans', verdana, arial, sans-serif; font-size: 10px; fill: rgb(42, 63, 95); fill-opacity: 1; white-space: pre; text-shadow: white 1px 1px 1px, white -1px -1px 1px, white 1px -1px 1px, white -1px 1px 1px;">Cadmium</text></g><g class="sankey-node" transform="translate(260.000,309.870)" style="opacity: 1;"><rect class="node-rect" width="20" height="0.5" style="stroke-width: 0; stroke: rgb(0, 0, 0); stroke-opacity: 1; fill: rgb(102, 205, 170); fill-opacity: 1;"/><text class="node-label" data-notex="1" x="0" y="0" text-anchor="start" transform="translate(23,3.75)" style="cursor: default; font-family: 'Open Sans', verdana, arial, sans-serif; font-size: 10px; fill: rgb(42, 63, 95); fill-opacity: 1; white-space: pre; text-shadow: white 1px 1px 1px, white -1px -1px 1px, white 1px -1px 1px, white -1px 1px 1px;">Tellurium</text></g><g class="sankey-node" transform="translate(260.000,319.884)" style="opacity: 1;"><rect class="node-rect" width="20" height="0.5" style="stroke-width: 0; stroke: rgb(0, 0, 0); stroke-opacity: 1; fill: rgb(102, 205, 170); fill-opacity: 1;"/><text class="node-label" data-notex="1" x="0" y="0" text-anchor="start" transform="translate(23,3.75)" style="cursor: default; font-family: 'Open Sans', verdana, arial, sans-serif; font-size: 10px; fill: rgb(42, 63, 95); fill-opacity: 1; white-space: pre; text-shadow: white 1px 1px 1px, white -1px -1px 1px, white 1px -1px 1px, white -1px 1px 1px;">Copper</text></g><g class="sankey-node" transform="translate(260.000,278.403)" style="opacity: 1;"><rect class="node-rect" width="20" height="0.6606164093301459" style="stroke-width: 0; stroke: rgb(0, 0, 0); stroke-opacity: 1; fill: rgb(102, 205, 170); fill-opacity: 1;"/><text class="node-label" data-notex="1" x="0" y="0" text-anchor="start" transform="translate(23,3.830308204665073)" style="cursor: default; font-family: 'Open Sans', verdana, arial, sans-serif; font-size: 10px; fill: rgb(42, 63, 95); fill-opacity: 1; white-space: pre; text-shadow: white 1px 1px 1px, white -1px -1px 1px, white 1px -1px 1px, white -1px 1px 1px;">Aluminum frames</text></g><g class="sankey-node" transform="translate(260.000,289.063)" style="opacity: 1;"><rect class="node-rect" width="20" height="0.79412823362361" style="stroke-width: 0; stroke: rgb(0, 0, 0); stroke-opacity: 1; fill: rgb(102, 205, 170); fill-opacity: 1;"/><text class="node-label" data-notex="1" x="0" y="0" text-anchor="start" transform="translate(23,3.897064116811805)" style="cursor: default; font-family: 'Open Sans', verdana, arial, sans-serif; font-size: 10px; fill: rgb(42, 63, 95); fill-opacity: 1; white-space: pre; text-shadow: white 1px 1px 1px, white -1px -1px 1px, white 1px -1px 1px, white -1px 1px 1px;">Encapsulant</text></g><g class="sankey-node" transform="translate(390.000,51.573)" style="opacity: 1;"><rect class="node-rect" width="20" height="166.6259062808615" style="stroke-width: 0; stroke: rgb(0, 0, 0); stroke-opacity: 1; fill: rgb(135, 206, 250); fill-opacity: 1;"/><text class="node-label" data-notex="1" x="0" y="0" text-anchor="start" transform="translate(23,86.81295314043075)" style="cursor: default; font-family: 'Open Sans', verdana, arial, sans-serif; font-size: 10px; fill: rgb(42, 63, 95); fill-opacity: 1; white-space: pre; text-shadow: white 1px 1px 1px, white -1px -1px 1px, white 1px -1px 1px, white -1px 1px 1px;">cSi Recycling</text></g><g class="sankey-node" transform="translate(390.000,228.199)" style="opacity: 1;"><rect class="node-rect" width="20" height="33.37409371913884" style="stroke-width: 0; stroke: rgb(0, 0, 0); stroke-opacity: 1; fill: rgb(102, 205, 170); fill-opacity: 1;"/><text class="node-label" data-notex="1" x="0" y="0" text-anchor="start" transform="translate(23,20.18704685956942)" style="cursor: default; font-family: 'Open Sans', verdana, arial, sans-serif; font-size: 10px; fill: rgb(42, 63, 95); fill-opacity: 1; white-space: pre; text-shadow: white 1px 1px 1px, white -1px -1px 1px, white 1px -1px 1px, white -1px 1px 1px;">CdTe Recycling</text></g><g class="sankey-node" transform="translate(520.000,72.241)" style="opacity: 1;"><rect class="node-rect" width="20" height="147.97618878028956" style="stroke-width: 0; stroke: rgb(0, 0, 0); stroke-opacity: 1; fill: rgb(143, 188, 143); fill-opacity: 1;"/><text class="node-label" data-notex="1" x="0" y="0" text-anchor="end" transform="translate(-3,77.48809439014478)" style="cursor: default; font-family: 'Open Sans', verdana, arial, sans-serif; font-size: 10px; fill: rgb(42, 63, 95); fill-opacity: 1; white-space: pre; text-shadow: white 1px 1px 1px, white -1px -1px 1px, white 1px -1px 1px, white -1px 1px 1px;">Glass scrap</text></g><g class="sankey-node" transform="translate(520.000,261.468)" style="opacity: 1;"><rect class="node-rect" width="20" height="5.505527962969097" style="stroke-width: 0; stroke: rgb(0, 0, 0); stroke-opacity: 1; fill: rgb(143, 188, 143); fill-opacity: 1;"/><text class="node-label" data-notex="1" x="0" y="0" text-anchor="end" transform="translate(-3,6.252763981484549)" style="cursor: default; font-family: 'Open Sans', verdana, arial, sans-serif; font-size: 10px; fill: rgb(42, 63, 95); fill-opacity: 1; white-space: pre; text-shadow: white 1px 1px 1px, white -1px -1px 1px, white 1px -1px 1px, white -1px 1px 1px;">Manufacturing grade silicon</text></g><g class="sankey-node" transform="translate(520.000,299.771)" style="opacity: 1;"><rect class="node-rect" width="20" height="0.5" style="stroke-width: 0; stroke: rgb(0, 0, 0); stroke-opacity: 1; fill: rgb(143, 188, 143); fill-opacity: 1;"/><text class="node-label" data-notex="1" x="0" y="0" text-anchor="end" transform="translate(-3,3.75)" style="cursor: default; font-family: 'Open Sans', verdana, arial, sans-serif; font-size: 10px; fill: rgb(42, 63, 95); fill-opacity: 1; white-space: pre; text-shadow: white 1px 1px 1px, white -1px -1px 1px, white 1px -1px 1px, white -1px 1px 1px;">Copper scrap</text></g><g class="sankey-node" transform="translate(520.000,289.708)" style="opacity: 1;"><rect class="node-rect" width="20" height="0.5" style="stroke-width: 0; stroke: rgb(0, 0, 0); stroke-opacity: 1; fill: rgb(143, 188, 143); fill-opacity: 1;"/><text class="node-label" data-notex="1" x="0" y="0" text-anchor="end" transform="translate(-3,3.75)" style="cursor: default; font-family: 'Open Sans', verdana, arial, sans-serif; font-size: 10px; fill: rgb(42, 63, 95); fill-opacity: 1; white-space: pre; text-shadow: white 1px 1px 1px, white -1px -1px 1px, white 1px -1px 1px, white -1px 1px 1px;">Silver scrap</text></g><g class="sankey-node" transform="translate(520.000,309.974)" style="opacity: 1;"><rect class="node-rect" width="20" height="0.5" style="stroke-width: 0; stroke: rgb(0, 0, 0); stroke-opacity: 1; fill: rgb(143, 188, 143); fill-opacity: 1;"/><text class="node-label" data-notex="1" x="0" y="0" text-anchor="end" transform="translate(-3,3.75)" style="cursor: default; font-family: 'Open Sans', verdana, arial, sans-serif; font-size: 10px; fill: rgb(42, 63, 95); fill-opacity: 1; white-space: pre; text-shadow: white 1px 1px 1px, white -1px -1px 1px, white 1px -1px 1px, white -1px 1px 1px;">Cadmium scrap</text></g><g class="sankey-node" transform="translate(520.000,319.986)" style="opacity: 1;"><rect class="node-rect" width="20" height="0.5" style="stroke-width: 0; stroke: rgb(0, 0, 0); stroke-opacity: 1; fill: rgb(143, 188, 143); fill-opacity: 1;"/><text class="node-label" data-notex="1" x="0" y="0" text-anchor="end" transform="translate(-3,3.75)" style="cursor: default; font-family: 'Open Sans', verdana, arial, sans-serif; font-size: 10px; fill: rgb(42, 63, 95); fill-opacity: 1; white-space: pre; text-shadow: white 1px 1px 1px, white -1px -1px 1px, white 1px -1px 1px, white -1px 1px 1px;">Tellurium scrap</text></g><g class="sankey-node" transform="translate(520.000,230.217)" style="opacity: 1;"><rect class="node-rect" width="20" height="21.251578477677896" style="stroke-width: 0; stroke: rgb(0, 0, 0); stroke-opacity: 1; fill: rgb(143, 188, 143); fill-opacity: 1;"/><text class="node-label" data-notex="1" x="0" y="0" text-anchor="end" transform="translate(-3,14.125789238838948)" style="cursor: default; font-family: 'Open Sans', verdana, arial, sans-serif; font-size: 10px; fill: rgb(42, 63, 95); fill-opacity: 1; white-space: pre; text-shadow: white 1px 1px 1px, white -1px -1px 1px, white 1px -1px 1px, white -1px 1px 1px;">Aluminum scrap</text></g><g class="sankey-node" transform="translate(520.000,276.974)" style="opacity: 1;"><rect class="node-rect" width="20" height="2.7342595030901293" style="stroke-width: 0; stroke: rgb(0, 0, 0); stroke-opacity: 1; fill: rgb(233, 150, 122); fill-opacity: 1;"/><text class="node-label" data-notex="1" x="0" y="0" text-anchor="end" transform="translate(-3,4.867129751545065)" style="cursor: default; font-family: 'Open Sans', verdana, arial, sans-serif; font-size: 10px; fill: rgb(42, 63, 95); fill-opacity: 1; white-space: pre; text-shadow: white 1px 1px 1px, white -1px -1px 1px, white 1px -1px 1px, white -1px 1px 1px;">Landfill</text></g></g></g><defs id="topdefs-218a3a"><g class="clips"/></defs><g class="layer-above"><g class="imagelayer"/><g class="shapelayer"/></g><g class="infolayer"><g class="g-gtitle"><text class="gtitle" x="35" y="50" text-anchor="start" dy="0em" style="font-family: 'Open Sans', verdana, arial, sans-serif; font-size: 14px; fill: rgb(42, 63, 95); opacity: 1; font-weight: normal; white-space: pre;">Basic Sankey Diagram</text></g><g class="first-render"/></g></svg>