<svg class="main-svg" xmlns="http://www.w3.org/2000/svg" xmlns:xlink="http://www.w3.org/1999/xlink" width="700" height="500" style="" viewBox="0 0 700 500"><rect x="0" y="0" width="700" height="500" style="fill: rgb(255, 255, 255); fill-opacity: 1;"/><defs id="defs-528380"><g class="clips"/><g class="gradients"/><g class="patterns"/></defs><g class="bglayer"/><g class="layer-below"><g class="imagelayer"/><g class="shapelayer"/></g><g class="cartesianlayer"/><g class="polarlayer"/><g class="smithlayer"/><g class="ternarylayer"/><g class="geolayer"/><g class="funnelarealayer"/><g class="pielayer"/><g class="iciclelayer"/><g class="treemaplayer"/><g class="sunburstlayer"/><g class="glimages"/><g class="sankey" transform="translate(80,100)matrix(1 0 0 1 0 0)" style="box-sizing: content-box; position: absolute; left: 0px; shape-rendering: geometricprecision; pointer-events: none;"><g class="sankey-links" style="fill: none;"><path class="sankey-link" d="M20,14.15659306088989C140,14.15659306088989 140,32.62917766860143 260,32.62917766860143L260,236.63897283688743C140,236.63897283688743 140,218.16638822917588 20,218.16638822917588Z" style="stroke: rgb(68, 68, 68); stroke-opacity: 1; fill: rgb(240, 240, 245); fill-opacity: 0.65; stroke-width: 0; opacity: 1;"/><path class="sankey-link" d="M20,218.16638822917588C140,218.16638822917588 140,246.63897283688743 260,246.63897283688743L260,287.5008182458007C140,287.5008182458007 140,259.02823363808915 20,259.02823363808915Z" style="stroke: rgb(68, 68, 68); stroke-opacity: 1; fill: rgb(240, 240, 245); fill-opacity: 0.65; stroke-width: 0; opacity: 1;"/><path class="sankey-link" d="M280,32.62917766860143C400,32.62917766860143 400,2.842170943040401e-14 520,2.842170943040401e-14L520,146.16032886600462C400,146.16032886600462 400,178.789506534606 280,178.789506534606Z" style="stroke: rgb(68, 68, 68); stroke-opacity: 1; fill: rgb(240, 240, 245); fill-opacity: 0.65; stroke-width: 0; opacity: 1;"/><path class="sankey-link" d="M280,226.35912504209682C400,226.35912504209682 400,259.55431019216945 520,259.55431019216945L520,266.29504851484893C400,266.29504851484893 400,233.09986336477624 280,233.09986336477624Z" style="stroke: rgb(68, 68, 68); stroke-opacity: 1; fill: rgb(240, 240, 245); fill-opacity: 0.65; stroke-width: 0; opacity: 1;"/><path class="sankey-link" d="M280,236.52457717253847C400,236.52457717253847 400,299.7197623226111 520,299.7197623226111L520,299.83415798695995C400,299.83415798695995 400,236.63897283688735 280,236.63897283688735Z" style="stroke: rgb(240, 240, 245); stroke-opacity: 0.65; fill: rgb(240, 240, 245); fill-opacity: 0.65; stroke-width: 1; opacity: 1;"/><path class="sankey-link" d="M280,236.44757641620362C400,236.44757641620362 400,289.64276156627625 520,289.64276156627625L520,289.71976232261113C400,289.71976232261113 400,236.5245771725385 280,236.5245771725385Z" style="stroke: rgb(240, 240, 245); stroke-opacity: 0.65; fill: rgb(240, 240, 245); fill-opacity: 0.65; stroke-width: 1; opacity: 1;"/><path class="sankey-link" d="M280,178.789506534606C400,178.789506534606 400,191.17586056495423 520,191.17586056495423L520,216.38657387865032C400,216.38657387865032 400,204.0002198483021 280,204.0002198483021Z" style="stroke: rgb(68, 68, 68); stroke-opacity: 1; fill: rgb(240, 240, 245); fill-opacity: 0.65; stroke-width: 0; opacity: 1;"/><path class="sankey-link" d="M280,233.09986336477624C400,233.09986336477624 400,276.2950485148489 520,276.2950485148489L520,279.64276156627625C400,279.64276156627625 400,236.44757641620362 280,236.44757641620362Z" style="stroke: rgb(68, 68, 68); stroke-opacity: 1; fill: rgb(240, 240, 245); fill-opacity: 0.65; stroke-width: 0; opacity: 1;"/><path class="sankey-link" d="M280,204.00021984830207C400,204.00021984830207 400,227.19540499837473 520,227.19540499837473L520,249.55431019216945C400,249.55431019216945 400,226.3591250420968 280,226.3591250420968Z" style="stroke: rgb(68, 68, 68); stroke-opacity: 1; fill: rgb(240, 240, 245); fill-opacity: 0.65; stroke-width: 0; opacity: 1;"/><path class="sankey-link" d="M280,246.63897283688746C400,246.63897283688746 400,146.16032886600462 520,146.16032886600462L520,181.1758605649542C400,181.1758605649542 400,281.6545045358371 280,281.6545045358371Z" style="stroke: rgb(68, 68, 68); stroke-opacity: 1; fill: rgb(240, 240, 245); fill-opacity: 0.65; stroke-width: 0; opacity: 1;"/><path class="sankey-link" d="M280,282.4633356555615C400,282.4633356555615 400,299.83415798695995 520,299.83415798695995L520,299.9687476493762C400,299.9687476493762 400,282.59792531797774 280,282.59792531797774Z" style="stroke: rgb(240, 240, 245); stroke-opacity: 0.65; fill: rgb(240, 240, 245); fill-opacity: 0.65; stroke-width: 1; opacity: 1;"/><path class="sankey-link" d="M280,282.5979253179777C400,282.5979253179777 400,309.9687476493762 520,309.9687476493762L520,309.9830948983369C400,309.9830948983369 400,282.6122725669384 280,282.6122725669384Z" style="stroke: rgb(240, 240, 245); stroke-opacity: 0.65; fill: rgb(240, 240, 245); fill-opacity: 0.65; stroke-width: 1; opacity: 1;"/><path class="sankey-link" d="M280,282.6122725669384C400,282.6122725669384 400,319.98309489833684 520,319.98309489833684L520,320C400,320 400,282.6291776686015 280,282.6291776686015Z" style="stroke: rgb(240, 240, 245); stroke-opacity: 0.65; fill: rgb(240, 240, 245); fill-opacity: 0.65; stroke-width: 1; opacity: 1;"/><path class="sankey-link" d="M280,281.654504535837C400,281.654504535837 400,216.3865738786503 520,216.3865738786503L520,217.19540499837476C400,217.19540499837476 400,282.4633356555615 280,282.4633356555615Z" style="stroke: rgb(240, 240, 245); stroke-opacity: 0.65; fill: rgb(240, 240, 245); fill-opacity: 0.65; stroke-width: 1; opacity: 1;"/></g><g class="sankey-node-set" style="cursor: move;"><g class="sankey-node" transform="translate(0.000,14.157)" style="opacity: 1;"><rect class="node-rect" width="20" height="244.8716405771992" style="stroke-width: 0; stroke: rgb(0, 0, 0); stroke-opacity: 1; fill: rgb(250, 240, 230); fill-opacity: 1;"/><text class="node-label" data-notex="1" x="0" y="0" text-anchor="start" transform="translate(23,126.6358202885996)" style="cursor: default; font-family: 'Open Sans', verdana, arial, sans-serif; font-size: 12px; fill: rgb(42, 63, 95); fill-opacity: 1; white-space: pre; text-shadow: white 1px 1px 1px, white -1px -1px 1px, white 1px -1px 1px, white -1px 1px 1px;"></text></g><g class="sankey-node" transform="translate(260.000,32.629)" style="opacity: 1;"><rect class="node-rect" width="20" height="204.00979516828602" style="stroke-width: 0; stroke: rgb(0, 0, 0); stroke-opacity: 1; fill: rgb(135, 206, 250); fill-opacity: 1;"/><text class="node-label" data-notex="1" x="0" y="0" text-anchor="start" transform="translate(23,106.20489758414301)" style="cursor: default; font-family: 'Open Sans', verdana, arial, sans-serif; font-size: 12px; fill: rgb(42, 63, 95); fill-opacity: 1; white-space: pre; text-shadow: white 1px 1px 1px, white -1px -1px 1px, white 1px -1px 1px, white -1px 1px 1px;"></text></g><g class="sankey-node" transform="translate(260.000,246.639)" style="opacity: 1;"><rect class="node-rect" width="20" height="40.86184540891338" style="stroke-width: 0; stroke: rgb(0, 0, 0); stroke-opacity: 1; fill: rgb(102, 205, 170); fill-opacity: 1;"/><text class="node-label" data-notex="1" x="0" y="0" text-anchor="start" transform="translate(23,24.63092270445669)" style="cursor: default; font-family: 'Open Sans', verdana, arial, sans-serif; font-size: 12px; fill: rgb(42, 63, 95); fill-opacity: 1; white-space: pre; text-shadow: white 1px 1px 1px, white -1px -1px 1px, white 1px -1px 1px, white -1px 1px 1px;"></text></g><g class="sankey-node" transform="translate(520.000,0.000)" style="opacity: 1;"><rect class="node-rect" width="20" height="181.1758605649542" style="stroke-width: 0; stroke: rgb(0, 0, 0); stroke-opacity: 1; fill: rgb(143, 188, 143); fill-opacity: 1;"/><text class="node-label" data-notex="1" x="0" y="0" text-anchor="end" transform="translate(-3,94.7879302824771)" style="cursor: default; font-family: 'Open Sans', verdana, arial, sans-serif; font-size: 12px; fill: rgb(42, 63, 95); fill-opacity: 1; white-space: pre; text-shadow: white 1px 1px 1px, white -1px -1px 1px, white 1px -1px 1px, white -1px 1px 1px;"></text></g><g class="sankey-node" transform="translate(520.000,259.554)" style="opacity: 1;"><rect class="node-rect" width="20" height="6.7407383226794195" style="stroke-width: 0; stroke: rgb(0, 0, 0); stroke-opacity: 1; fill: rgb(143, 188, 143); fill-opacity: 1;"/><text class="node-label" data-notex="1" x="0" y="0" text-anchor="end" transform="translate(-3,7.570369161339709)" style="cursor: default; font-family: 'Open Sans', verdana, arial, sans-serif; font-size: 12px; fill: rgb(42, 63, 95); fill-opacity: 1; white-space: pre; text-shadow: white 1px 1px 1px, white -1px -1px 1px, white 1px -1px 1px, white -1px 1px 1px;"></text></g><g class="sankey-node" transform="translate(520.000,299.720)" style="opacity: 1;"><rect class="node-rect" width="20" height="0.5" style="stroke-width: 0; stroke: rgb(0, 0, 0); stroke-opacity: 1; fill: rgb(143, 188, 143); fill-opacity: 1;"/><text class="node-label" data-notex="1" x="0" y="0" text-anchor="end" transform="translate(-3,4.449999999999999)" style="cursor: default; font-family: 'Open Sans', verdana, arial, sans-serif; font-size: 12px; fill: rgb(42, 63, 95); fill-opacity: 1; white-space: pre; text-shadow: white 1px 1px 1px, white -1px -1px 1px, white 1px -1px 1px, white -1px 1px 1px;"></text></g><g class="sankey-node" transform="translate(520.000,289.643)" style="opacity: 1;"><rect class="node-rect" width="20" height="0.5" style="stroke-width: 0; stroke: rgb(0, 0, 0); stroke-opacity: 1; fill: rgb(143, 188, 143); fill-opacity: 1;"/><text class="node-label" data-notex="1" x="0" y="0" text-anchor="end" transform="translate(-3,4.449999999999999)" style="cursor: default; font-family: 'Open Sans', verdana, arial, sans-serif; font-size: 12px; fill: rgb(42, 63, 95); fill-opacity: 1; white-space: pre; text-shadow: white 1px 1px 1px, white -1px -1px 1px, white 1px -1px 1px, white -1px 1px 1px;"></text></g><g class="sankey-node" transform="translate(520.000,309.969)" style="opacity: 1;"><rect class="node-rect" width="20" height="0.5" style="stroke-width: 0; stroke: rgb(0, 0, 0); stroke-opacity: 1; fill: rgb(143, 188, 143); fill-opacity: 1;"/><text class="node-label" data-notex="1" x="0" y="0" text-anchor="end" transform="translate(-3,4.449999999999999)" style="cursor: default; font-family: 'Open Sans', verdana, arial, sans-serif; font-size: 12px; fill: rgb(42, 63, 95); fill-opacity: 1; white-space: pre; text-shadow: white 1px 1px 1px, white -1px -1px 1px, white 1px -1px 1px, white -1px 1px 1px;"></text></g><g class="sankey-node" transform="translate(520.000,319.983)" style="opacity: 1;"><rect class="node-rect" width="20" height="0.5" style="stroke-width: 0; stroke: rgb(0, 0, 0); stroke-opacity: 1; fill: rgb(143, 188, 143); fill-opacity: 1;"/><text class="node-label" data-notex="1" x="0" y="0" text-anchor="end" transform="translate(-3,4.449999999999999)" style="cursor: default; font-family: 'Open Sans', verdana, arial, sans-serif; font-size: 12px; fill: rgb(42, 63, 95); fill-opacity: 1; white-space: pre; text-shadow: white 1px 1px 1px, white -1px -1px 1px, white 1px -1px 1px, white -1px 1px 1px;"></text></g><g class="sankey-node" transform="translate(520.000,191.176)" style="opacity: 1;"><rect class="node-rect" width="20" height="26.019544433420492" style="stroke-width: 0; stroke: rgb(0, 0, 0); stroke-opacity: 1; fill: rgb(143, 188, 143); fill-opacity: 1;"/><text class="node-label" data-notex="1" x="0" y="0" text-anchor="end" transform="translate(-3,17.209772216710245)" style="cursor: default; font-family: 'Open Sans', verdana, arial, sans-serif; font-size: 12px; fill: rgb(42, 63, 95); fill-opacity: 1; white-space: pre; text-shadow: white 1px 1px 1px, white -1px -1px 1px, white 1px -1px 1px, white -1px 1px 1px;"></text></g><g class="sankey-node" transform="translate(520.000,276.295)" style="opacity: 1;"><rect class="node-rect" width="20" height="3.3477130514273767" style="stroke-width: 0; stroke: rgb(0, 0, 0); stroke-opacity: 1; fill: rgb(233, 150, 122); fill-opacity: 1;"/><text class="node-label" data-notex="1" x="0" y="0" text-anchor="end" transform="translate(-3,5.873856525713688)" style="cursor: default; font-family: 'Open Sans', verdana, arial, sans-serif; font-size: 12px; fill: rgb(42, 63, 95); fill-opacity: 1; white-space: pre; text-shadow: white 1px 1px 1px, white -1px -1px 1px, white 1px -1px 1px, white -1px 1px 1px;"></text></g><g class="sankey-node" transform="translate(520.000,227.195)" style="opacity: 1;"><rect class="node-rect" width="20" height="22.358905193794726" style="stroke-width: 0; stroke: rgb(0, 0, 0); stroke-opacity: 1; fill: rgb(230, 184, 0); fill-opacity: 1;"/><text class="node-label" data-notex="1" x="0" y="0" text-anchor="end" transform="translate(-3,15.379452596897362)" style="cursor: default; font-family: 'Open Sans', verdana, arial, sans-serif; font-size: 12px; fill: rgb(42, 63, 95); fill-opacity: 1; white-space: pre; text-shadow: white 1px 1px 1px, white -1px -1px 1px, white 1px -1px 1px, white -1px 1px 1px;"></text></g></g></g><defs id="topdefs-528380"><g class="clips"/></defs><g class="layer-above"><g class="imagelayer"/><g class="shapelayer"/></g><g class="infolayer"><g class="g-gtitle"/><g class="first-render"/></g></svg>