<svg class="main-svg" xmlns="http://www.w3.org/2000/svg" xmlns:xlink="http://www.w3.org/1999/xlink" width="700" height="500" style="" viewBox="0 0 700 500"><rect x="0" y="0" width="700" height="500" style="fill: rgb(255, 255, 255); fill-opacity: 1;"/><defs id="defs-ca3b6f"><g class="clips"/><g class="gradients"/><g class="patterns"/></defs><g class="bglayer"/><g class="layer-below"><g class="imagelayer"/><g class="shapelayer"/></g><g class="cartesianlayer"/><g class="polarlayer"/><g class="smithlayer"/><g class="ternarylayer"/><g class="geolayer"/><g class="funnelarealayer"/><g class="pielayer"/><g class="iciclelayer"/><g class="treemaplayer"/><g class="sunburstlayer"/><g class="glimages"/><g class="sankey" transform="translate(80,100)matrix(1 0 0 1 0 0)" style="box-sizing: content-box; position: absolute; left: 0px; shape-rendering: geometricprecision; pointer-events: none;"><g class="sankey-links" style="fill: none;"><path class="sankey-link" d="M20,42.391694955859336C75,42.391694955859336 75,52.96575592373593 130,52.96575592373593L130,219.5916622045974C75,219.5916622045974 75,209.0176012367208 20,209.0176012367208Z" style="stroke: rgb(68, 68, 68); stroke-opacity: 1; fill: rgb(240, 240, 245); fill-opacity: 0.65; stroke-width: 0; opacity: 1;"/><path class="sankey-link" d="M20,209.01760123672082C75,209.01760123672082 75,229.59166220459736 130,229.59166220459736L130,262.96575592373586C75,262.96575592373586 75,242.39169495585932 20,242.39169495585932Z" style="stroke: rgb(68, 68, 68); stroke-opacity: 1; fill: rgb(240, 240, 245); fill-opacity: 0.65; stroke-width: 0; opacity: 1;"/><path class="sankey-link" d="M150,52.965755923735934C205,52.965755923735934 205,1.2789769243681803e-13 260,1.2789769243681803e-13L260,121.81336505024436C205,121.81336505024436 205,174.77912097398016 150,174.77912097398016Z" style="stroke: rgb(68, 68, 68); stroke-opacity: 1; fill: rgb(240, 240, 245); fill-opacity: 0.65; stroke-width: 0; opacity: 1;"/><path class="sankey-link" d="M150,213.63181816289276C205,213.63181816289276 205,200.6660622391567 260,200.6660622391567L260,206.46135483175573C205,206.46135483175573 205,219.42711075549178 150,219.42711075549178Z" style="stroke: rgb(68, 68, 68); stroke-opacity: 1; fill: rgb(240, 240, 245); fill-opacity: 0.65; stroke-width: 0; opacity: 1;"/><path class="sankey-link" d="M150,219.42711075549178C205,219.42711075549178 205,216.46135483175578 260,216.46135483175578L260,216.5275555788328C205,216.5275555788328 205,219.4933115025688 150,219.4933115025688Z" style="stroke: rgb(240, 240, 245); stroke-opacity: 0.65; fill: rgb(240, 240, 245); fill-opacity: 0.65; stroke-width: 1; opacity: 1;"/><path class="sankey-link" d="M150,219.4933115025688C205,219.4933115025688 205,226.5275555788328 260,226.5275555788328L260,226.6259062808614C205,226.6259062808614 205,219.59166220459738 150,219.59166220459738Z" style="stroke: rgb(240, 240, 245); stroke-opacity: 0.65; fill: rgb(240, 240, 245); fill-opacity: 0.65; stroke-width: 1; opacity: 1;"/><path class="sankey-link" d="M150,174.77912097398016C205,174.77912097398016 205,131.81336505024416 260,131.81336505024416L260,152.404327118592C205,152.404327118592 205,195.370083042328 150,195.370083042328Z" style="stroke: rgb(68, 68, 68); stroke-opacity: 1; fill: rgb(240, 240, 245); fill-opacity: 0.65; stroke-width: 0; opacity: 1;"/><path class="sankey-link" d="M150,195.370083042328C205,195.370083042328 205,162.40432711859194 260,162.40432711859194L260,174.27089177353878C205,174.27089177353878 205,207.23664769727483 150,207.23664769727483Z" style="stroke: rgb(68, 68, 68); stroke-opacity: 1; fill: rgb(240, 240, 245); fill-opacity: 0.65; stroke-width: 0; opacity: 1;"/><path class="sankey-link" d="M150,207.23664769727483C205,207.23664769727483 205,184.27089177353878 260,184.27089177353878L260,190.6660622391567C205,190.6660622391567 205,213.63181816289276 150,213.63181816289276Z" style="stroke: rgb(68, 68, 68); stroke-opacity: 1; fill: rgb(240, 240, 245); fill-opacity: 0.65; stroke-width: 0; opacity: 1;"/><path class="sankey-link" d="M150,229.59166220459736C205,229.59166220459736 205,236.6259062808614 260,236.6259062808614L260,268.40267409313935C205,268.40267409313935 205,261.3684300168753 150,261.3684300168753Z" style="stroke: rgb(68, 68, 68); stroke-opacity: 1; fill: rgb(240, 240, 245); fill-opacity: 0.65; stroke-width: 0; opacity: 1;"/><path class="sankey-link" d="M150,262.8231746598291C205,262.8231746598291 205,299.8574187360932 260,299.8574187360932L260,299.86975366168235C205,299.86975366168235 205,262.8355095854182 150,262.8355095854182Z" style="stroke: rgb(240, 240, 245); stroke-opacity: 0.65; fill: rgb(240, 240, 245); fill-opacity: 0.65; stroke-width: 1; opacity: 1;"/><path class="sankey-link" d="M150,262.8355095854182C205,262.8355095854182 205,309.86975366168235 260,309.86975366168235L260,309.8842876794347C205,309.8842876794347 205,262.85004360317055 150,262.85004360317055Z" style="stroke: rgb(240, 240, 245); stroke-opacity: 0.65; fill: rgb(240, 240, 245); fill-opacity: 0.65; stroke-width: 1; opacity: 1;"/><path class="sankey-link" d="M150,262.8500436031705C205,262.8500436031705 205,319.88428767943464 260,319.88428767943464L260,319.99999999999994C205,319.99999999999994 205,262.9657559237358 150,262.9657559237358Z" style="stroke: rgb(240, 240, 245); stroke-opacity: 0.65; fill: rgb(240, 240, 245); fill-opacity: 0.65; stroke-width: 1; opacity: 1;"/><path class="sankey-link" d="M150,261.3684300168753C205,261.3684300168753 205,278.40267409313947 260,278.40267409313947L260,279.0632905024696C205,279.0632905024696 205,262.02904642620547 150,262.02904642620547Z" style="stroke: rgb(240, 240, 245); stroke-opacity: 0.65; fill: rgb(240, 240, 245); fill-opacity: 0.65; stroke-width: 1; opacity: 1;"/><path class="sankey-link" d="M150,262.02904642620547C205,262.02904642620547 205,289.0632905024696 260,289.0632905024696L260,289.8574187360932C205,289.8574187360932 205,262.8231746598291 150,262.8231746598291Z" style="stroke: rgb(240, 240, 245); stroke-opacity: 0.65; fill: rgb(240, 240, 245); fill-opacity: 0.65; stroke-width: 1; opacity: 1;"/><path class="sankey-link" d="M280,1.2789769243681803e-13C335,1.2789769243681803e-13 335,43.64489056316469 390,43.64489056316469L390,165.4582556134089C335,165.4582556134089 335,121.81336505024436 280,121.81336505024436Z" style="stroke: rgb(68, 68, 68); stroke-opacity: 1; fill: rgb(240, 240, 245); fill-opacity: 0.65; stroke-width: 0; opacity: 1;"/><path class="sankey-link" d="M280,200.6660622391567C335,200.6660622391567 335,204.31095280232154 390,204.31095280232154L390,210.10624539492056C335,210.10624539492056 335,206.46135483175573 280,206.46135483175573Z" style="stroke: rgb(68, 68, 68); stroke-opacity: 1; fill: rgb(240, 240, 245); fill-opacity: 0.65; stroke-width: 0; opacity: 1;"/><path class="sankey-link" d="M280,216.46135483175578C335,216.46135483175578 335,210.10624539492056 390,210.10624539492056L390,210.17244614199757C335,210.17244614199757 335,216.5275555788328 280,216.5275555788328Z" style="stroke: rgb(240, 240, 245); stroke-opacity: 0.65; fill: rgb(240, 240, 245); fill-opacity: 0.65; stroke-width: 1; opacity: 1;"/><path class="sankey-link" d="M280,226.5275555788328C335,226.5275555788328 335,210.17244614199757 390,210.17244614199757L390,210.27079684402617C335,210.27079684402617 335,226.6259062808614 280,226.6259062808614Z" style="stroke: rgb(240, 240, 245); stroke-opacity: 0.65; fill: rgb(240, 240, 245); fill-opacity: 0.65; stroke-width: 1; opacity: 1;"/><path class="sankey-link" d="M280,131.81336505024416C335,131.81336505024416 335,165.45825561340894 390,165.45825561340894L390,186.04921768175677C335,186.04921768175677 335,152.404327118592 280,152.404327118592Z" style="stroke: rgb(68, 68, 68); stroke-opacity: 1; fill: rgb(240, 240, 245); fill-opacity: 0.65; stroke-width: 0; opacity: 1;"/><path class="sankey-link" d="M280,162.40432711859194C335,162.40432711859194 335,186.04921768175677 390,186.04921768175677L390,197.91578233670361C335,197.91578233670361 335,174.27089177353878 280,174.27089177353878Z" style="stroke: rgb(68, 68, 68); stroke-opacity: 1; fill: rgb(240, 240, 245); fill-opacity: 0.65; stroke-width: 0; opacity: 1;"/><path class="sankey-link" d="M280,184.27089177353878C335,184.27089177353878 335,197.91578233670361 390,197.91578233670361L390,204.31095280232154C335,204.31095280232154 335,190.6660622391567 280,190.6660622391567Z" style="stroke: rgb(68, 68, 68); stroke-opacity: 1; fill: rgb(240, 240, 245); fill-opacity: 0.65; stroke-width: 0; opacity: 1;"/><path class="sankey-link" d="M280,236.6259062808614C335,236.6259062808614 335,220.27079684402597 390,220.27079684402597L390,252.04756465630393C335,252.04756465630393 335,268.40267409313935 280,268.40267409313935Z" style="stroke: rgb(68, 68, 68); stroke-opacity: 1; fill: rgb(240, 240, 245); fill-opacity: 0.65; stroke-width: 0; opacity: 1;"/><path class="sankey-link" d="M280,299.8574187360932C335,299.8574187360932 335,253.50230929925772 390,253.50230929925772L390,253.51464422484685C335,253.51464422484685 335,299.86975366168235 280,299.86975366168235Z" style="stroke: rgb(240, 240, 245); stroke-opacity: 0.65; fill: rgb(240, 240, 245); fill-opacity: 0.65; stroke-width: 1; opacity: 1;"/><path class="sankey-link" d="M280,309.86975366168235C335,309.86975366168235 335,253.51464422484682 390,253.51464422484682L390,253.5291782425991C335,253.5291782425991 335,309.8842876794347 280,309.8842876794347Z" style="stroke: rgb(240, 240, 245); stroke-opacity: 0.65; fill: rgb(240, 240, 245); fill-opacity: 0.65; stroke-width: 1; opacity: 1;"/><path class="sankey-link" d="M280,319.88428767943464C335,319.88428767943464 335,253.52917824259913 390,253.52917824259913L390,253.6448905631645C335,253.6448905631645 335,319.99999999999994 280,319.99999999999994Z" style="stroke: rgb(240, 240, 245); stroke-opacity: 0.65; fill: rgb(240, 240, 245); fill-opacity: 0.65; stroke-width: 1; opacity: 1;"/><path class="sankey-link" d="M280,278.40267409313947C335,278.40267409313947 335,252.04756465630393 390,252.04756465630393L390,252.70818106563408C335,252.70818106563408 335,279.0632905024696 280,279.0632905024696Z" style="stroke: rgb(240, 240, 245); stroke-opacity: 0.65; fill: rgb(240, 240, 245); fill-opacity: 0.65; stroke-width: 1; opacity: 1;"/><path class="sankey-link" d="M280,289.0632905024696C335,289.0632905024696 335,252.70818106563408 390,252.70818106563408L390,253.5023092992577C335,253.5023092992577 335,289.8574187360932 280,289.8574187360932Z" style="stroke: rgb(240, 240, 245); stroke-opacity: 0.65; fill: rgb(240, 240, 245); fill-opacity: 0.65; stroke-width: 1; opacity: 1;"/><path class="sankey-link" d="M410,43.64489056316469C465,43.64489056316469 465,43.97893407804673 520,43.97893407804673L520,163.35603182728607C465,163.35603182728607 465,163.02198831240403 410,163.02198831240403Z" style="stroke: rgb(68, 68, 68); stroke-opacity: 1; fill: rgb(240, 240, 245); fill-opacity: 0.65; stroke-width: 0; opacity: 1;"/><path class="sankey-link" d="M410,201.87468550131666C465,201.87468550131666 465,261.46843645657907 520,261.46843645657907L520,266.9739644195481C465,266.9739644195481 465,207.38021346428576 410,207.38021346428576Z" style="stroke: rgb(68, 68, 68); stroke-opacity: 1; fill: rgb(240, 240, 245); fill-opacity: 0.65; stroke-width: 0; opacity: 1;"/><path class="sankey-link" d="M410,210.17736367709904C465,210.17736367709904 465,299.77111463236145 520,299.77111463236145L520,299.86454779928863C465,299.86454779928863 465,210.27079684402622 410,210.27079684402622Z" style="stroke: rgb(240, 240, 245); stroke-opacity: 0.65; fill: rgb(240, 240, 245); fill-opacity: 0.65; stroke-width: 1; opacity: 1;"/><path class="sankey-link" d="M410,210.1144729673759C465,210.1144729673759 465,289.7082239226383 520,289.7082239226383L520,289.7711146323614C465,289.7711146323614 465,210.17736367709904 410,210.17736367709904Z" style="stroke: rgb(240, 240, 245); stroke-opacity: 0.65; fill: rgb(240, 240, 245); fill-opacity: 0.65; stroke-width: 1; opacity: 1;"/><path class="sankey-link" d="M410,163.02198831240406C465,163.02198831240406 465,201.95512285833615 520,201.95512285833615L520,222.546084926684C465,222.546084926684 465,183.6129503807519 410,183.6129503807519Z" style="stroke: rgb(68, 68, 68); stroke-opacity: 1; fill: rgb(240, 240, 245); fill-opacity: 0.65; stroke-width: 0; opacity: 1;"/><path class="sankey-link" d="M410,207.38021346428576C465,207.38021346428576 465,276.97396441954817 520,276.97396441954817L520,279.7082239226383C465,279.7082239226383 465,210.1144729673759 410,210.1144729673759Z" style="stroke: rgb(68, 68, 68); stroke-opacity: 1; fill: rgb(240, 240, 245); fill-opacity: 0.65; stroke-width: 0; opacity: 1;"/><path class="sankey-link" d="M410,183.6129503807519C465,183.6129503807519 465,233.20670133601413 520,233.20670133601413L520,251.4684364565789C465,251.4684364565789 465,201.87468550131666 410,201.87468550131666Z" style="stroke: rgb(68, 68, 68); stroke-opacity: 1; fill: rgb(240, 240, 245); fill-opacity: 0.65; stroke-width: 0; opacity: 1;"/><path class="sankey-link" d="M410,220.27079684402597C465,220.27079684402597 465,163.35603182728607 520,163.35603182728607L520,191.95512285833627C465,191.95512285833627 465,248.86988787507616 410,248.86988787507616Z" style="stroke: rgb(68, 68, 68); stroke-opacity: 1; fill: rgb(240, 240, 245); fill-opacity: 0.65; stroke-width: 0; opacity: 1;"/><path class="sankey-link" d="M410,249.53050428440628C465,249.53050428440628 465,299.86454779928863 520,299.86454779928863L520,299.9744745038257C465,299.9744745038257 465,249.64043098894336 410,249.64043098894336Z" style="stroke: rgb(240, 240, 245); stroke-opacity: 0.65; fill: rgb(240, 240, 245); fill-opacity: 0.65; stroke-width: 1; opacity: 1;"/><path class="sankey-link" d="M410,249.64043098894336C465,249.64043098894336 465,309.9744745038257 520,309.9744745038257L520,309.9861926831354C465,309.9861926831354 465,249.652149168253 410,249.652149168253Z" style="stroke: rgb(240, 240, 245); stroke-opacity: 0.65; fill: rgb(240, 240, 245); fill-opacity: 0.65; stroke-width: 1; opacity: 1;"/><path class="sankey-link" d="M410,249.65214916825303C465,249.65214916825303 465,319.9861926831353 520,319.9861926831353L520,320C465,320 465,249.66595648511773 410,249.66595648511773Z" style="stroke: rgb(240, 240, 245); stroke-opacity: 0.65; fill: rgb(240, 240, 245); fill-opacity: 0.65; stroke-width: 1; opacity: 1;"/><path class="sankey-link" d="M410,248.86988787507613C465,248.86988787507613 465,222.546084926684 520,222.546084926684L520,223.20670133601413C465,223.20670133601413 465,249.53050428440628 410,249.53050428440628Z" style="stroke: rgb(240, 240, 245); stroke-opacity: 0.65; fill: rgb(240, 240, 245); fill-opacity: 0.65; stroke-width: 1; opacity: 1;"/></g><g class="sankey-node-set" style="cursor: move;"><g class="sankey-node" transform="translate(0.000,42.392)" style="opacity: 1;"><rect class="node-rect" width="20" height="199.99999999999997" style="stroke-width: 0; stroke: rgb(0, 0, 0); stroke-opacity: 1; fill: rgb(250, 240, 230); fill-opacity: 1;"/><text class="node-label" data-notex="1" x="0" y="0" text-anchor="start" transform="translate(23,103.49999999999999)" style="cursor: default; font-family: 'Open Sans', verdana, arial, sans-serif; font-size: 10px; fill: rgb(42, 63, 95); fill-opacity: 1; white-space: pre; text-shadow: white 1px 1px 1px, white -1px -1px 1px, white 1px -1px 1px, white -1px 1px 1px;"></text></g><g class="sankey-node" transform="translate(130.000,52.966)" style="opacity: 1;"><rect class="node-rect" width="20" height="166.62590628086144" style="stroke-width: 0; stroke: rgb(0, 0, 0); stroke-opacity: 1; fill: rgb(135, 206, 250); fill-opacity: 1;"/><text class="node-label" data-notex="1" x="0" y="0" text-anchor="start" transform="translate(23,86.81295314043072)" style="cursor: default; font-family: 'Open Sans', verdana, arial, sans-serif; font-size: 10px; fill: rgb(42, 63, 95); fill-opacity: 1; white-space: pre; text-shadow: white 1px 1px 1px, white -1px -1px 1px, white 1px -1px 1px, white -1px 1px 1px;"></text></g><g class="sankey-node" transform="translate(130.000,229.592)" style="opacity: 1;"><rect class="node-rect" width="20" height="33.3740937191385" style="stroke-width: 0; stroke: rgb(0, 0, 0); stroke-opacity: 1; fill: rgb(102, 205, 170); fill-opacity: 1;"/><text class="node-label" data-notex="1" x="0" y="0" text-anchor="start" transform="translate(23,20.18704685956925)" style="cursor: default; font-family: 'Open Sans', verdana, arial, sans-serif; font-size: 10px; fill: rgb(42, 63, 95); fill-opacity: 1; white-space: pre; text-shadow: white 1px 1px 1px, white -1px -1px 1px, white 1px -1px 1px, white -1px 1px 1px;"></text></g><g class="sankey-node" transform="translate(260.000,0.000)" style="opacity: 1;"><rect class="node-rect" width="20" height="121.81336505024403" style="stroke-width: 0; stroke: rgb(0, 0, 0); stroke-opacity: 1; fill: rgb(135, 206, 250); fill-opacity: 1;"/><text class="node-label" data-notex="1" x="0" y="0" text-anchor="start" transform="translate(23,64.40668252512202)" style="cursor: default; font-family: 'Open Sans', verdana, arial, sans-serif; font-size: 10px; fill: rgb(42, 63, 95); fill-opacity: 1; white-space: pre; text-shadow: white 1px 1px 1px, white -1px -1px 1px, white 1px -1px 1px, white -1px 1px 1px;"></text></g><g class="sankey-node" transform="translate(260.000,200.666)" style="opacity: 1;"><rect class="node-rect" width="20" height="5.795292592599054" style="stroke-width: 0; stroke: rgb(0, 0, 0); stroke-opacity: 1; fill: rgb(135, 206, 250); fill-opacity: 1;"/><text class="node-label" data-notex="1" x="0" y="0" text-anchor="start" transform="translate(23,6.397646296299527)" style="cursor: default; font-family: 'Open Sans', verdana, arial, sans-serif; font-size: 10px; fill: rgb(42, 63, 95); fill-opacity: 1; white-space: pre; text-shadow: white 1px 1px 1px, white -1px -1px 1px, white 1px -1px 1px, white -1px 1px 1px;"></text></g><g class="sankey-node" transform="translate(260.000,216.461)" style="opacity: 1;"><rect class="node-rect" width="20" height="0.5" style="stroke-width: 0; stroke: rgb(0, 0, 0); stroke-opacity: 1; fill: rgb(135, 206, 250); fill-opacity: 1;"/><text class="node-label" data-notex="1" x="0" y="0" text-anchor="start" transform="translate(23,3.75)" style="cursor: default; font-family: 'Open Sans', verdana, arial, sans-serif; font-size: 10px; fill: rgb(42, 63, 95); fill-opacity: 1; white-space: pre; text-shadow: white 1px 1px 1px, white -1px -1px 1px, white 1px -1px 1px, white -1px 1px 1px;"></text></g><g class="sankey-node" transform="translate(260.000,226.528)" style="opacity: 1;"><rect class="node-rect" width="20" height="0.5" style="stroke-width: 0; stroke: rgb(0, 0, 0); stroke-opacity: 1; fill: rgb(135, 206, 250); fill-opacity: 1;"/><text class="node-label" data-notex="1" x="0" y="0" text-anchor="start" transform="translate(23,3.75)" style="cursor: default; font-family: 'Open Sans', verdana, arial, sans-serif; font-size: 10px; fill: rgb(42, 63, 95); fill-opacity: 1; white-space: pre; text-shadow: white 1px 1px 1px, white -1px -1px 1px, white 1px -1px 1px, white -1px 1px 1px;"></text></g><g class="sankey-node" transform="translate(260.000,131.813)" style="opacity: 1;"><rect class="node-rect" width="20" height="20.59096206834778" style="stroke-width: 0; stroke: rgb(0, 0, 0); stroke-opacity: 1; fill: rgb(135, 206, 250); fill-opacity: 1;"/><text class="node-label" data-notex="1" x="0" y="0" text-anchor="start" transform="translate(23,13.79548103417389)" style="cursor: default; font-family: 'Open Sans', verdana, arial, sans-serif; font-size: 10px; fill: rgb(42, 63, 95); fill-opacity: 1; white-space: pre; text-shadow: white 1px 1px 1px, white -1px -1px 1px, white 1px -1px 1px, white -1px 1px 1px;"></text></g><g class="sankey-node" transform="translate(260.000,162.404)" style="opacity: 1;"><rect class="node-rect" width="20" height="11.866564654946842" style="stroke-width: 0; stroke: rgb(0, 0, 0); stroke-opacity: 1; fill: rgb(135, 206, 250); fill-opacity: 1;"/><text class="node-label" data-notex="1" x="0" y="0" text-anchor="start" transform="translate(23,9.433282327473421)" style="cursor: default; font-family: 'Open Sans', verdana, arial, sans-serif; font-size: 10px; fill: rgb(42, 63, 95); fill-opacity: 1; white-space: pre; text-shadow: white 1px 1px 1px, white -1px -1px 1px, white 1px -1px 1px, white -1px 1px 1px;"></text></g><g class="sankey-node" transform="translate(260.000,184.271)" style="opacity: 1;"><rect class="node-rect" width="20" height="6.395170465617923" style="stroke-width: 0; stroke: rgb(0, 0, 0); stroke-opacity: 1; fill: rgb(135, 206, 250); fill-opacity: 1;"/><text class="node-label" data-notex="1" x="0" y="0" text-anchor="start" transform="translate(23,6.697585232808962)" style="cursor: default; font-family: 'Open Sans', verdana, arial, sans-serif; font-size: 10px; fill: rgb(42, 63, 95); fill-opacity: 1; white-space: pre; text-shadow: white 1px 1px 1px, white -1px -1px 1px, white 1px -1px 1px, white -1px 1px 1px;"></text></g><g class="sankey-node" transform="translate(260.000,236.626)" style="opacity: 1;"><rect class="node-rect" width="20" height="31.77676781227808" style="stroke-width: 0; stroke: rgb(0, 0, 0); stroke-opacity: 1; fill: rgb(102, 205, 170); fill-opacity: 1;"/><text class="node-label" data-notex="1" x="0" y="0" text-anchor="start" transform="translate(23,19.38838390613904)" style="cursor: default; font-family: 'Open Sans', verdana, arial, sans-serif; font-size: 10px; fill: rgb(42, 63, 95); fill-opacity: 1; white-space: pre; text-shadow: white 1px 1px 1px, white -1px -1px 1px, white 1px -1px 1px, white -1px 1px 1px;"></text></g><g class="sankey-node" transform="translate(260.000,299.857)" style="opacity: 1;"><rect class="node-rect" width="20" height="0.5" style="stroke-width: 0; stroke: rgb(0, 0, 0); stroke-opacity: 1; fill: rgb(102, 205, 170); fill-opacity: 1;"/><text class="node-label" data-notex="1" x="0" y="0" text-anchor="start" transform="translate(23,3.75)" style="cursor: default; font-family: 'Open Sans', verdana, arial, sans-serif; font-size: 10px; fill: rgb(42, 63, 95); fill-opacity: 1; white-space: pre; text-shadow: white 1px 1px 1px, white -1px -1px 1px, white 1px -1px 1px, white -1px 1px 1px;"></text></g><g class="sankey-node" transform="translate(260.000,309.870)" style="opacity: 1;"><rect class="node-rect" width="20" height="0.5" style="stroke-width: 0; stroke: rgb(0, 0, 0); stroke-opacity: 1; fill: rgb(102, 205, 170); fill-opacity: 1;"/><text class="node-label" data-notex="1" x="0" y="0" text-anchor="start" transform="translate(23,3.75)" style="cursor: default; font-family: 'Open Sans', verdana, arial, sans-serif; font-size: 10px; fill: rgb(42, 63, 95); fill-opacity: 1; white-space: pre; text-shadow: white 1px 1px 1px, white -1px -1px 1px, white 1px -1px 1px, white -1px 1px 1px;"></text></g><g class="sankey-node" transform="translate(260.000,319.884)" style="opacity: 1;"><rect class="node-rect" width="20" height="0.5" style="stroke-width: 0; stroke: rgb(0, 0, 0); stroke-opacity: 1; fill: rgb(102, 205, 170); fill-opacity: 1;"/><text class="node-label" data-notex="1" x="0" y="0" text-anchor="start" transform="translate(23,3.75)" style="cursor: default; font-family: 'Open Sans', verdana, arial, sans-serif; font-size: 10px; fill: rgb(42, 63, 95); fill-opacity: 1; white-space: pre; text-shadow: white 1px 1px 1px, white -1px -1px 1px, white 1px -1px 1px, white -1px 1px 1px;"></text></g><g class="sankey-node" transform="translate(260.000,278.403)" style="opacity: 1;"><rect class="node-rect" width="20" height="0.6606164093301459" style="stroke-width: 0; stroke: rgb(0, 0, 0); stroke-opacity: 1; fill: rgb(102, 205, 170); fill-opacity: 1;"/><text class="node-label" data-notex="1" x="0" y="0" text-anchor="start" transform="translate(23,3.830308204665073)" style="cursor: default; font-family: 'Open Sans', verdana, arial, sans-serif; font-size: 10px; fill: rgb(42, 63, 95); fill-opacity: 1; white-space: pre; text-shadow: white 1px 1px 1px, white -1px -1px 1px, white 1px -1px 1px, white -1px 1px 1px;"></text></g><g class="sankey-node" transform="translate(260.000,289.063)" style="opacity: 1;"><rect class="node-rect" width="20" height="0.79412823362361" style="stroke-width: 0; stroke: rgb(0, 0, 0); stroke-opacity: 1; fill: rgb(102, 205, 170); fill-opacity: 1;"/><text class="node-label" data-notex="1" x="0" y="0" text-anchor="start" transform="translate(23,3.897064116811805)" style="cursor: default; font-family: 'Open Sans', verdana, arial, sans-serif; font-size: 10px; fill: rgb(42, 63, 95); fill-opacity: 1; white-space: pre; text-shadow: white 1px 1px 1px, white -1px -1px 1px, white 1px -1px 1px, white -1px 1px 1px;"></text></g><g class="sankey-node" transform="translate(390.000,43.645)" style="opacity: 1;"><rect class="node-rect" width="20" height="166.62590628086127" style="stroke-width: 0; stroke: rgb(0, 0, 0); stroke-opacity: 1; fill: rgb(135, 206, 250); fill-opacity: 1;"/><text class="node-label" data-notex="1" x="0" y="0" text-anchor="start" transform="translate(23,86.81295314043064)" style="cursor: default; font-family: 'Open Sans', verdana, arial, sans-serif; font-size: 10px; fill: rgb(42, 63, 95); fill-opacity: 1; white-space: pre; text-shadow: white 1px 1px 1px, white -1px -1px 1px, white 1px -1px 1px, white -1px 1px 1px;"></text></g><g class="sankey-node" transform="translate(390.000,220.271)" style="opacity: 1;"><rect class="node-rect" width="20" height="33.374093719138926" style="stroke-width: 0; stroke: rgb(0, 0, 0); stroke-opacity: 1; fill: rgb(102, 205, 170); fill-opacity: 1;"/><text class="node-label" data-notex="1" x="0" y="0" text-anchor="start" transform="translate(23,20.187046859569463)" style="cursor: default; font-family: 'Open Sans', verdana, arial, sans-serif; font-size: 10px; fill: rgb(42, 63, 95); fill-opacity: 1; white-space: pre; text-shadow: white 1px 1px 1px, white -1px -1px 1px, white 1px -1px 1px, white -1px 1px 1px;"></text></g><g class="sankey-node" transform="translate(520.000,43.979)" style="opacity: 1;"><rect class="node-rect" width="20" height="147.97618878028942" style="stroke-width: 0; stroke: rgb(0, 0, 0); stroke-opacity: 1; fill: rgb(143, 188, 143); fill-opacity: 1;"/><text class="node-label" data-notex="1" x="0" y="0" text-anchor="end" transform="translate(-3,77.48809439014471)" style="cursor: default; font-family: 'Open Sans', verdana, arial, sans-serif; font-size: 10px; fill: rgb(42, 63, 95); fill-opacity: 1; white-space: pre; text-shadow: white 1px 1px 1px, white -1px -1px 1px, white 1px -1px 1px, white -1px 1px 1px;"></text></g><g class="sankey-node" transform="translate(520.000,261.468)" style="opacity: 1;"><rect class="node-rect" width="20" height="5.505527962969097" style="stroke-width: 0; stroke: rgb(0, 0, 0); stroke-opacity: 1; fill: rgb(143, 188, 143); fill-opacity: 1;"/><text class="node-label" data-notex="1" x="0" y="0" text-anchor="end" transform="translate(-3,6.252763981484549)" style="cursor: default; font-family: 'Open Sans', verdana, arial, sans-serif; font-size: 10px; fill: rgb(42, 63, 95); fill-opacity: 1; white-space: pre; text-shadow: white 1px 1px 1px, white -1px -1px 1px, white 1px -1px 1px, white -1px 1px 1px;"></text></g><g class="sankey-node" transform="translate(520.000,299.771)" style="opacity: 1;"><rect class="node-rect" width="20" height="0.5" style="stroke-width: 0; stroke: rgb(0, 0, 0); stroke-opacity: 1; fill: rgb(143, 188, 143); fill-opacity: 1;"/><text class="node-label" data-notex="1" x="0" y="0" text-anchor="end" transform="translate(-3,3.75)" style="cursor: default; font-family: 'Open Sans', verdana, arial, sans-serif; font-size: 10px; fill: rgb(42, 63, 95); fill-opacity: 1; white-space: pre; text-shadow: white 1px 1px 1px, white -1px -1px 1px, white 1px -1px 1px, white -1px 1px 1px;"></text></g><g class="sankey-node" transform="translate(520.000,289.708)" style="opacity: 1;"><rect class="node-rect" width="20" height="0.5" style="stroke-width: 0; stroke: rgb(0, 0, 0); stroke-opacity: 1; fill: rgb(143, 188, 143); fill-opacity: 1;"/><text class="node-label" data-notex="1" x="0" y="0" text-anchor="end" transform="translate(-3,3.75)" style="cursor: default; font-family: 'Open Sans', verdana, arial, sans-serif; font-size: 10px; fill: rgb(42, 63, 95); fill-opacity: 1; white-space: pre; text-shadow: white 1px 1px 1px, white -1px -1px 1px, white 1px -1px 1px, white -1px 1px 1px;"></text></g><g class="sankey-node" transform="translate(520.000,309.974)" style="opacity: 1;"><rect class="node-rect" width="20" height="0.5" style="stroke-width: 0; stroke: rgb(0, 0, 0); stroke-opacity: 1; fill: rgb(143, 188, 143); fill-opacity: 1;"/><text class="node-label" data-notex="1" x="0" y="0" text-anchor="end" transform="translate(-3,3.75)" style="cursor: default; font-family: 'Open Sans', verdana, arial, sans-serif; font-size: 10px; fill: rgb(42, 63, 95); fill-opacity: 1; white-space: pre; text-shadow: white 1px 1px 1px, white -1px -1px 1px, white 1px -1px 1px, white -1px 1px 1px;"></text></g><g class="sankey-node" transform="translate(520.000,319.986)" style="opacity: 1;"><rect class="node-rect" width="20" height="0.5" style="stroke-width: 0; stroke: rgb(0, 0, 0); stroke-opacity: 1; fill: rgb(143, 188, 143); fill-opacity: 1;"/><text class="node-label" data-notex="1" x="0" y="0" text-anchor="end" transform="translate(-3,3.75)" style="cursor: default; font-family: 'Open Sans', verdana, arial, sans-serif; font-size: 10px; fill: rgb(42, 63, 95); fill-opacity: 1; white-space: pre; text-shadow: white 1px 1px 1px, white -1px -1px 1px, white 1px -1px 1px, white -1px 1px 1px;"></text></g><g class="sankey-node" transform="translate(520.000,201.955)" style="opacity: 1;"><rect class="node-rect" width="20" height="21.25157847767798" style="stroke-width: 0; stroke: rgb(0, 0, 0); stroke-opacity: 1; fill: rgb(143, 188, 143); fill-opacity: 1;"/><text class="node-label" data-notex="1" x="0" y="0" text-anchor="end" transform="translate(-3,14.12578923883899)" style="cursor: default; font-family: 'Open Sans', verdana, arial, sans-serif; font-size: 10px; fill: rgb(42, 63, 95); fill-opacity: 1; white-space: pre; text-shadow: white 1px 1px 1px, white -1px -1px 1px, white 1px -1px 1px, white -1px 1px 1px;"></text></g><g class="sankey-node" transform="translate(520.000,276.974)" style="opacity: 1;"><rect class="node-rect" width="20" height="2.7342595030901293" style="stroke-width: 0; stroke: rgb(0, 0, 0); stroke-opacity: 1; fill: rgb(233, 150, 122); fill-opacity: 1;"/><text class="node-label" data-notex="1" x="0" y="0" text-anchor="end" transform="translate(-3,4.867129751545065)" style="cursor: default; font-family: 'Open Sans', verdana, arial, sans-serif; font-size: 10px; fill: rgb(42, 63, 95); fill-opacity: 1; white-space: pre; text-shadow: white 1px 1px 1px, white -1px -1px 1px, white 1px -1px 1px, white -1px 1px 1px;"></text></g><g class="sankey-node" transform="translate(520.000,233.207)" style="opacity: 1;"><rect class="node-rect" width="20" height="18.261735120564936" style="stroke-width: 0; stroke: rgb(0, 0, 0); stroke-opacity: 1; fill: rgb(230, 184, 0); fill-opacity: 1;"/><text class="node-label" data-notex="1" x="0" y="0" text-anchor="end" transform="translate(-3,12.630867560282468)" style="cursor: default; font-family: 'Open Sans', verdana, arial, sans-serif; font-size: 10px; fill: rgb(42, 63, 95); fill-opacity: 1; white-space: pre; text-shadow: white 1px 1px 1px, white -1px -1px 1px, white 1px -1px 1px, white -1px 1px 1px;"></text></g></g></g><defs id="topdefs-ca3b6f"><g class="clips"/></defs><g class="layer-above"><g class="imagelayer"/><g class="shapelayer"/></g><g class="infolayer"><g class="g-gtitle"><text class="gtitle" x="35" y="50" text-anchor="start" dy="0em" style="font-family: 'Open Sans', verdana, arial, sans-serif; font-size: 14px; fill: rgb(42, 63, 95); opacity: 1; font-weight: normal; white-space: pre;">Basic Sankey Diagram</text></g><g class="first-render"/></g></svg>