<svg class="main-svg" xmlns="http://www.w3.org/2000/svg" xmlns:xlink="http://www.w3.org/1999/xlink" width="700" height="500" style="" viewBox="0 0 700 500"><rect x="0" y="0" width="700" height="500" style="fill: rgb(255, 255, 255); fill-opacity: 1;"/><defs id="defs-d2d415"><g class="clips"/><g class="gradients"/><g class="patterns"/></defs><g class="bglayer"/><g class="layer-below"><g class="imagelayer"/><g class="shapelayer"/></g><g class="cartesianlayer"/><g class="polarlayer"/><g class="smithlayer"/><g class="ternarylayer"/><g class="geolayer"/><g class="funnelarealayer"/><g class="pielayer"/><g class="iciclelayer"/><g class="treemaplayer"/><g class="sunburstlayer"/><g class="glimages"/><g class="sankey" transform="translate(80,100)matrix(1 0 0 1 0 0)" style="box-sizing: content-box; position: absolute; left: 0px; shape-rendering: geometricprecision; pointer-events: none;"><g class="sankey-links" style="fill: none;"><path class="sankey-link" d="M20,16.932199048645487C140,16.932199048645487 140,34.33305078507243 260,34.33305078507243L260,235.00124155833936C140,235.00124155833936 140,217.60038982191242 20,217.60038982191242Z" style="stroke: rgb(68, 68, 68); stroke-opacity: 1; fill: rgb(240, 240, 245); fill-opacity: 0.65; stroke-width: 0; opacity: 1;"/><path class="sankey-link" d="M20,217.60038982191242C140,217.60038982191242 140,245.00124156359954 260,245.00124156359954L260,285.1937851760186C140,285.1937851760186 140,257.7929334343315 20,257.7929334343315Z" style="stroke: rgb(68, 68, 68); stroke-opacity: 1; fill: rgb(240, 240, 245); fill-opacity: 0.65; stroke-width: 0; opacity: 1;"/><path class="sankey-link" d="M280,34.33305078507243C400,34.33305078507243 400,-1.8474111129762605e-13 520,-1.8474111129762605e-13L520,143.7662771679261C400,143.7662771679261 400,178.0993279529987 280,178.0993279529987Z" style="stroke: rgb(68, 68, 68); stroke-opacity: 1; fill: rgb(240, 240, 245); fill-opacity: 0.65; stroke-width: 0; opacity: 1;"/><path class="sankey-link" d="M280,224.88977384334794C400,224.88977384334794 400,255.79429616934527 520,255.79429616934527L520,262.4246237112546C400,262.4246237112546 400,231.52010138525725 280,231.52010138525725Z" style="stroke: rgb(68, 68, 68); stroke-opacity: 1; fill: rgb(240, 240, 245); fill-opacity: 0.65; stroke-width: 0; opacity: 1;"/><path class="sankey-link" d="M280,234.88871965758577C400,234.88871965758577 400,299.7243525112938 520,299.7243525112938L520,299.8368744173075C400,299.8368744173075 400,235.00124156359945 280,235.00124156359945Z" style="stroke: rgb(240, 240, 245); stroke-opacity: 0.65; fill: rgb(240, 240, 245); fill-opacity: 0.65; stroke-width: 1; opacity: 1;"/><path class="sankey-link" d="M280,231.52010138525725C400,231.52010138525725 400,272.4246237112547 520,272.4246237112547L520,272.50036322390673C400,272.50036322390673 400,231.59584089790934 280,231.59584089790934Z" style="stroke: rgb(240, 240, 245); stroke-opacity: 0.65; fill: rgb(240, 240, 245); fill-opacity: 0.65; stroke-width: 1; opacity: 1;"/><path class="sankey-link" d="M280,178.0993279529987C400,178.0993279529987 400,188.20826751147933 520,188.20826751147933L520,213.0060387396814C400,213.0060387396814 400,202.89709918120076 280,202.89709918120076Z" style="stroke: rgb(68, 68, 68); stroke-opacity: 1; fill: rgb(240, 240, 245); fill-opacity: 0.65; stroke-width: 0; opacity: 1;"/><path class="sankey-link" d="M280,231.5958408979093C400,231.5958408979093 400,282.50036322390673 520,282.50036322390673L520,285.7932419835832C400,285.7932419835832 400,234.88871965758577 280,234.88871965758577Z" style="stroke: rgb(68, 68, 68); stroke-opacity: 1; fill: rgb(240, 240, 245); fill-opacity: 0.65; stroke-width: 0; opacity: 1;"/><path class="sankey-link" d="M280,202.89709918120073C400,202.89709918120073 400,223.80162150719804 520,223.80162150719804L520,245.79429616934527C400,245.79429616934527 400,224.88977384334797 280,224.88977384334797Z" style="stroke: rgb(68, 68, 68); stroke-opacity: 1; fill: rgb(240, 240, 245); fill-opacity: 0.65; stroke-width: 0; opacity: 1;"/><path class="sankey-link" d="M280,245.00124156359954C400,245.00124156359954 400,143.7662771679261 520,143.7662771679261L520,178.20826751147933C400,178.20826751147933 400,279.4432319071528 280,279.4432319071528Z" style="stroke: rgb(68, 68, 68); stroke-opacity: 1; fill: rgb(240, 240, 245); fill-opacity: 0.65; stroke-width: 0; opacity: 1;"/><path class="sankey-link" d="M280,284.16992520237994C400,284.16992520237994 400,299.83687441730746 520,299.83687441730746L520,299.9692595512285C400,299.9692595512285 400,284.302310336301 280,284.302310336301Z" style="stroke: rgb(240, 240, 245); stroke-opacity: 0.65; fill: rgb(240, 240, 245); fill-opacity: 0.65; stroke-width: 1; opacity: 1;"/><path class="sankey-link" d="M280,284.302310336301C400,284.302310336301 400,309.9692595512285 520,309.9692595512285L520,309.9833717975999C400,309.9833717975999 400,284.3164225826724 280,284.3164225826724Z" style="stroke: rgb(240, 240, 245); stroke-opacity: 0.65; fill: rgb(240, 240, 245); fill-opacity: 0.65; stroke-width: 1; opacity: 1;"/><path class="sankey-link" d="M280,284.3164225826724C400,284.3164225826724 400,319.98337179759983 520,319.98337179759983L520,320C400,320 400,284.33305078507254 280,284.33305078507254Z" style="stroke: rgb(240, 240, 245); stroke-opacity: 0.65; fill: rgb(240, 240, 245); fill-opacity: 0.65; stroke-width: 1; opacity: 1;"/><path class="sankey-link" d="M280,279.4432319071528C400,279.4432319071528 400,213.00603873968137 520,213.00603873968137L520,213.80162150719795C400,213.80162150719795 400,280.2388146746694 280,280.2388146746694Z" style="stroke: rgb(240, 240, 245); stroke-opacity: 0.65; fill: rgb(240, 240, 245); fill-opacity: 0.65; stroke-width: 1; opacity: 1;"/><path class="sankey-link" d="M280,280.23881467466936C400,280.23881467466936 400,285.7932419835832 520,285.7932419835832L520,289.7243525112937C400,289.7243525112937 400,284.1699252023799 280,284.1699252023799Z" style="stroke: rgb(68, 68, 68); stroke-opacity: 1; fill: rgb(240, 240, 245); fill-opacity: 0.65; stroke-width: 0; opacity: 1;"/></g><g class="sankey-node-set" style="cursor: move;"><g class="sankey-node" transform="translate(0.000,16.932)" style="opacity: 1;"><rect class="node-rect" width="20" height="240.860734385686" style="stroke-width: 0.5; stroke: rgb(0, 0, 0); stroke-opacity: 1; fill: rgb(255, 243, 217); fill-opacity: 1;"/><text class="node-label" data-notex="1" x="0" y="0" text-anchor="start" transform="translate(23.25,123.930367192843)" style="cursor: default; font-family: 'Times New Roman'; font-size: 10px; fill: rgb(42, 63, 95); fill-opacity: 1; white-space: pre; text-shadow: white 1px 1px 1px, white -1px -1px 1px, white 1px -1px 1px, white -1px 1px 1px;"></text></g><g class="sankey-node" transform="translate(260.000,34.333)" style="opacity: 1;"><rect class="node-rect" width="20" height="200.6681907785271" style="stroke-width: 0.5; stroke: rgb(0, 0, 0); stroke-opacity: 1; fill: rgb(199, 219, 244); fill-opacity: 1;"/><text class="node-label" data-notex="1" x="0" y="0" text-anchor="start" transform="translate(23.25,103.83409538926355)" style="cursor: default; font-family: 'Times New Roman'; font-size: 10px; fill: rgb(42, 63, 95); fill-opacity: 1; white-space: pre; text-shadow: white 1px 1px 1px, white -1px -1px 1px, white 1px -1px 1px, white -1px 1px 1px;"></text></g><g class="sankey-node" transform="translate(260.000,245.001)" style="opacity: 1;"><rect class="node-rect" width="20" height="40.19254361241917" style="stroke-width: 0.5; stroke: rgb(0, 0, 0); stroke-opacity: 1; fill: rgb(215, 250, 245); fill-opacity: 1;"/><text class="node-label" data-notex="1" x="0" y="0" text-anchor="start" transform="translate(23.25,23.596271806209586)" style="cursor: default; font-family: 'Times New Roman'; font-size: 10px; fill: rgb(42, 63, 95); fill-opacity: 1; white-space: pre; text-shadow: white 1px 1px 1px, white -1px -1px 1px, white 1px -1px 1px, white -1px 1px 1px;"></text></g><g class="sankey-node" transform="translate(520.000,-0.000)" style="opacity: 1;"><rect class="node-rect" width="20" height="178.2082675114795" style="stroke-width: 0.5; stroke: rgb(0, 0, 0); stroke-opacity: 1; fill: rgb(217, 240, 217); fill-opacity: 1;"/><text class="node-label" data-notex="1" x="0" y="0" text-anchor="end" transform="translate(-3.25,92.60413375573975)" style="cursor: default; font-family: 'Times New Roman'; font-size: 10px; fill: rgb(42, 63, 95); fill-opacity: 1; white-space: pre; text-shadow: white 1px 1px 1px, white -1px -1px 1px, white 1px -1px 1px, white -1px 1px 1px;"></text></g><g class="sankey-node" transform="translate(520.000,255.794)" style="opacity: 1;"><rect class="node-rect" width="20" height="6.630327541909423" style="stroke-width: 0.5; stroke: rgb(0, 0, 0); stroke-opacity: 1; fill: rgb(217, 240, 217); fill-opacity: 1;"/><text class="node-label" data-notex="1" x="0" y="0" text-anchor="end" transform="translate(-3.25,6.815163770954712)" style="cursor: default; font-family: 'Times New Roman'; font-size: 10px; fill: rgb(42, 63, 95); fill-opacity: 1; white-space: pre; text-shadow: white 1px 1px 1px, white -1px -1px 1px, white 1px -1px 1px, white -1px 1px 1px;"></text></g><g class="sankey-node" transform="translate(520.000,299.724)" style="opacity: 1;"><rect class="node-rect" width="20" height="0.5" style="stroke-width: 0.5; stroke: rgb(0, 0, 0); stroke-opacity: 1; fill: rgb(217, 240, 217); fill-opacity: 1;"/><text class="node-label" data-notex="1" x="0" y="0" text-anchor="end" transform="translate(-3.25,3.75)" style="cursor: default; font-family: 'Times New Roman'; font-size: 10px; fill: rgb(42, 63, 95); fill-opacity: 1; white-space: pre; text-shadow: white 1px 1px 1px, white -1px -1px 1px, white 1px -1px 1px, white -1px 1px 1px;"></text></g><g class="sankey-node" transform="translate(520.000,272.425)" style="opacity: 1;"><rect class="node-rect" width="20" height="0.5" style="stroke-width: 0.5; stroke: rgb(0, 0, 0); stroke-opacity: 1; fill: rgb(217, 240, 217); fill-opacity: 1;"/><text class="node-label" data-notex="1" x="0" y="0" text-anchor="end" transform="translate(-3.25,3.75)" style="cursor: default; font-family: 'Times New Roman'; font-size: 10px; fill: rgb(42, 63, 95); fill-opacity: 1; white-space: pre; text-shadow: white 1px 1px 1px, white -1px -1px 1px, white 1px -1px 1px, white -1px 1px 1px;"></text></g><g class="sankey-node" transform="translate(520.000,309.969)" style="opacity: 1;"><rect class="node-rect" width="20" height="0.5" style="stroke-width: 0.5; stroke: rgb(0, 0, 0); stroke-opacity: 1; fill: rgb(217, 240, 217); fill-opacity: 1;"/><text class="node-label" data-notex="1" x="0" y="0" text-anchor="end" transform="translate(-3.25,3.75)" style="cursor: default; font-family: 'Times New Roman'; font-size: 10px; fill: rgb(42, 63, 95); fill-opacity: 1; white-space: pre; text-shadow: white 1px 1px 1px, white -1px -1px 1px, white 1px -1px 1px, white -1px 1px 1px;"></text></g><g class="sankey-node" transform="translate(520.000,319.983)" style="opacity: 1;"><rect class="node-rect" width="20" height="0.5" style="stroke-width: 0.5; stroke: rgb(0, 0, 0); stroke-opacity: 1; fill: rgb(217, 240, 217); fill-opacity: 1;"/><text class="node-label" data-notex="1" x="0" y="0" text-anchor="end" transform="translate(-3.25,3.75)" style="cursor: default; font-family: 'Times New Roman'; font-size: 10px; fill: rgb(42, 63, 95); fill-opacity: 1; white-space: pre; text-shadow: white 1px 1px 1px, white -1px -1px 1px, white 1px -1px 1px, white -1px 1px 1px;"></text></g><g class="sankey-node" transform="translate(520.000,188.208)" style="opacity: 1;"><rect class="node-rect" width="20" height="25.5933539957187" style="stroke-width: 0.5; stroke: rgb(0, 0, 0); stroke-opacity: 1; fill: rgb(217, 240, 217); fill-opacity: 1;"/><text class="node-label" data-notex="1" x="0" y="0" text-anchor="end" transform="translate(-3.25,16.29667699785935)" style="cursor: default; font-family: 'Times New Roman'; font-size: 10px; fill: rgb(42, 63, 95); fill-opacity: 1; white-space: pre; text-shadow: white 1px 1px 1px, white -1px -1px 1px, white 1px -1px 1px, white -1px 1px 1px;"></text></g><g class="sankey-node" transform="translate(520.000,282.500)" style="opacity: 1;"><rect class="node-rect" width="20" height="7.223989287387042" style="stroke-width: 0.5; stroke: rgb(0, 0, 0); stroke-opacity: 1; fill: rgb(247, 145, 116); fill-opacity: 1;"/><text class="node-label" data-notex="1" x="0" y="0" text-anchor="end" transform="translate(-3.25,7.111994643693521)" style="cursor: default; font-family: 'Times New Roman'; font-size: 10px; fill: rgb(42, 63, 95); fill-opacity: 1; white-space: pre; text-shadow: white 1px 1px 1px, white -1px -1px 1px, white 1px -1px 1px, white -1px 1px 1px;"></text></g><g class="sankey-node" transform="translate(520.000,223.802)" style="opacity: 1;"><rect class="node-rect" width="20" height="21.992674662147238" style="stroke-width: 0.5; stroke: rgb(0, 0, 0); stroke-opacity: 1; fill: rgb(192, 232, 131); fill-opacity: 1;"/><text class="node-label" data-notex="1" x="0" y="0" text-anchor="end" transform="translate(-3.25,14.496337331073619)" style="cursor: default; font-family: 'Times New Roman'; font-size: 10px; fill: rgb(42, 63, 95); fill-opacity: 1; white-space: pre; text-shadow: white 1px 1px 1px, white -1px -1px 1px, white 1px -1px 1px, white -1px 1px 1px;"></text></g></g></g><defs id="topdefs-d2d415"><g class="clips"/></defs><g class="layer-above"><g class="imagelayer"/><g class="shapelayer"/></g><g class="infolayer"><g class="g-gtitle"/><g class="first-render"/></g></svg>