<svg class="main-svg" xmlns="http://www.w3.org/2000/svg" xmlns:xlink="http://www.w3.org/1999/xlink" width="700" height="500" style="" viewBox="0 0 700 500"><rect x="0" y="0" width="700" height="500" style="fill: rgb(255, 255, 255); fill-opacity: 1;"/><defs id="defs-fc4d6a"><g class="clips"/><g class="gradients"/><g class="patterns"/></defs><g class="bglayer"/><g class="layer-below"><g class="imagelayer"/><g class="shapelayer"/></g><g class="cartesianlayer"/><g class="polarlayer"/><g class="smithlayer"/><g class="ternarylayer"/><g class="geolayer"/><g class="funnelarealayer"/><g class="pielayer"/><g class="iciclelayer"/><g class="treemaplayer"/><g class="sunburstlayer"/><g class="glimages"/><g class="sankey" transform="translate(80,100)matrix(1 0 0 1 0 0)" style="box-sizing: content-box; position: absolute; left: 0px; shape-rendering: geometricprecision; pointer-events: none;"><g class="sankey-links" style="fill: none;"><path class="sankey-link" d="M20,41.840500985900206C75,41.840500985900206 75,52.16977287528697 130,52.16977287528697L130,218.79567915178063C75,218.79567915178063 75,208.4664072623939 20,208.4664072623939Z" style="stroke: rgb(68, 68, 68); stroke-opacity: 1; fill: rgb(240, 240, 245); fill-opacity: 0.65; stroke-width: 0; opacity: 1;"/><path class="sankey-link" d="M20,208.4664072623939C75,208.4664072623939 75,228.7956791561485 130,228.7956791561485L130,262.1697728735919C75,262.1697728735919 75,241.84050097983732 20,241.84050097983732Z" style="stroke: rgb(68, 68, 68); stroke-opacity: 1; fill: rgb(240, 240, 245); fill-opacity: 0.65; stroke-width: 0; opacity: 1;"/><path class="sankey-link" d="M150,52.169772875286974C205,52.169772875286974 205,2.984279490192421e-13 260,2.984279490192421e-13L260,121.81336505024453C205,121.81336505024453 205,173.9831379255312 150,173.9831379255312Z" style="stroke: rgb(68, 68, 68); stroke-opacity: 1; fill: rgb(240, 240, 245); fill-opacity: 0.65; stroke-width: 0; opacity: 1;"/><path class="sankey-link" d="M150,212.8358351144438C205,212.8358351144438 205,200.6660622391571 260,200.6660622391571L260,206.46135483175613C205,206.46135483175613 205,218.63112770704282 150,218.63112770704282Z" style="stroke: rgb(68, 68, 68); stroke-opacity: 1; fill: rgb(240, 240, 245); fill-opacity: 0.65; stroke-width: 0; opacity: 1;"/><path class="sankey-link" d="M150,218.63112770704282C205,218.63112770704282 205,216.461354831756 260,216.461354831756L260,216.52755557883302C205,216.52755557883302 205,218.69732845411983 150,218.69732845411983Z" style="stroke: rgb(240, 240, 245); stroke-opacity: 0.65; fill: rgb(240, 240, 245); fill-opacity: 0.65; stroke-width: 1; opacity: 1;"/><path class="sankey-link" d="M150,218.69732845411983C205,218.69732845411983 205,226.52755557883302 260,226.52755557883302L260,226.6259062808616C205,226.6259062808616 205,218.79567915614842 150,218.79567915614842Z" style="stroke: rgb(240, 240, 245); stroke-opacity: 0.65; fill: rgb(240, 240, 245); fill-opacity: 0.65; stroke-width: 1; opacity: 1;"/><path class="sankey-link" d="M150,173.9831379255312C205,173.9831379255312 205,131.81336505024447 260,131.81336505024447L260,152.4043271185923C205,152.4043271185923 205,194.57409999387903 150,194.57409999387903Z" style="stroke: rgb(68, 68, 68); stroke-opacity: 1; fill: rgb(240, 240, 245); fill-opacity: 0.65; stroke-width: 0; opacity: 1;"/><path class="sankey-link" d="M150,194.57409999387903C205,194.57409999387903 205,162.40432711859233 260,162.40432711859233L260,174.27089177353918C205,174.27089177353918 205,206.44066464882587 150,206.44066464882587Z" style="stroke: rgb(68, 68, 68); stroke-opacity: 1; fill: rgb(240, 240, 245); fill-opacity: 0.65; stroke-width: 0; opacity: 1;"/><path class="sankey-link" d="M150,206.44066464882587C205,206.44066464882587 205,184.27089177353918 260,184.27089177353918L260,190.6660622391571C205,190.6660622391571 205,212.8358351144438 150,212.8358351144438Z" style="stroke: rgb(68, 68, 68); stroke-opacity: 1; fill: rgb(240, 240, 245); fill-opacity: 0.65; stroke-width: 0; opacity: 1;"/><path class="sankey-link" d="M150,228.7956791561485C205,228.7956791561485 205,236.6259062808616 260,236.6259062808616L260,268.4026740931396C205,268.4026740931396 205,260.57244696842645 150,260.57244696842645Z" style="stroke: rgb(68, 68, 68); stroke-opacity: 1; fill: rgb(240, 240, 245); fill-opacity: 0.65; stroke-width: 0; opacity: 1;"/><path class="sankey-link" d="M150,262.0271916113802C205,262.0271916113802 205,299.8574187360933 260,299.8574187360933L260,299.8697536616824C205,299.8697536616824 205,262.03952653696933 150,262.03952653696933Z" style="stroke: rgb(240, 240, 245); stroke-opacity: 0.65; fill: rgb(240, 240, 245); fill-opacity: 0.65; stroke-width: 1; opacity: 1;"/><path class="sankey-link" d="M150,262.03952653696933C205,262.03952653696933 205,309.8697536616824 260,309.8697536616824L260,309.88428767943475C205,309.88428767943475 205,262.0540605547217 150,262.0540605547217Z" style="stroke: rgb(240, 240, 245); stroke-opacity: 0.65; fill: rgb(240, 240, 245); fill-opacity: 0.65; stroke-width: 1; opacity: 1;"/><path class="sankey-link" d="M150,262.0540605547216C205,262.0540605547216 205,319.8842876794347 260,319.8842876794347L260,320C205,320 205,262.1697728752869 150,262.1697728752869Z" style="stroke: rgb(240, 240, 245); stroke-opacity: 0.65; fill: rgb(240, 240, 245); fill-opacity: 0.65; stroke-width: 1; opacity: 1;"/><path class="sankey-link" d="M150,260.57244696842645C205,260.57244696842645 205,278.4026740931395 260,278.4026740931395L260,279.06329050246967C205,279.06329050246967 205,261.2330633777566 150,261.2330633777566Z" style="stroke: rgb(240, 240, 245); stroke-opacity: 0.65; fill: rgb(240, 240, 245); fill-opacity: 0.65; stroke-width: 1; opacity: 1;"/><path class="sankey-link" d="M150,261.2330633777566C205,261.2330633777566 205,289.06329050246967 260,289.06329050246967L260,289.8574187360933C205,289.8574187360933 205,262.0271916113802 150,262.0271916113802Z" style="stroke: rgb(240, 240, 245); stroke-opacity: 0.65; fill: rgb(240, 240, 245); fill-opacity: 0.65; stroke-width: 1; opacity: 1;"/><path class="sankey-link" d="M280,2.984279490192421e-13C335,2.984279490192421e-13 335,42.429687015389085 390,42.429687015389085L390,164.24305206563332C335,164.24305206563332 335,121.81336505024453 280,121.81336505024453Z" style="stroke: rgb(68, 68, 68); stroke-opacity: 1; fill: rgb(240, 240, 245); fill-opacity: 0.65; stroke-width: 0; opacity: 1;"/><path class="sankey-link" d="M280,200.6660622391571C335,200.6660622391571 335,203.09574925454592 390,203.09574925454592L390,208.89104184714495C335,208.89104184714495 335,206.46135483175613 280,206.46135483175613Z" style="stroke: rgb(68, 68, 68); stroke-opacity: 1; fill: rgb(240, 240, 245); fill-opacity: 0.65; stroke-width: 0; opacity: 1;"/><path class="sankey-link" d="M280,216.461354831756C335,216.461354831756 335,208.89104184714495 390,208.89104184714495L390,208.95724259422195C335,208.95724259422195 335,216.52755557883302 280,216.52755557883302Z" style="stroke: rgb(240, 240, 245); stroke-opacity: 0.65; fill: rgb(240, 240, 245); fill-opacity: 0.65; stroke-width: 1; opacity: 1;"/><path class="sankey-link" d="M280,226.52755557883302C335,226.52755557883302 335,208.95724259422195 390,208.95724259422195L390,209.05559329625055C335,209.05559329625055 335,226.6259062808616 280,226.6259062808616Z" style="stroke: rgb(240, 240, 245); stroke-opacity: 0.65; fill: rgb(240, 240, 245); fill-opacity: 0.65; stroke-width: 1; opacity: 1;"/><path class="sankey-link" d="M280,131.81336505024447C335,131.81336505024447 335,164.24305206563332 390,164.24305206563332L390,184.83401413398116C335,184.83401413398116 335,152.4043271185923 280,152.4043271185923Z" style="stroke: rgb(68, 68, 68); stroke-opacity: 1; fill: rgb(240, 240, 245); fill-opacity: 0.65; stroke-width: 0; opacity: 1;"/><path class="sankey-link" d="M280,162.40432711859233C335,162.40432711859233 335,184.83401413398116 390,184.83401413398116L390,196.700578788928C335,196.700578788928 335,174.27089177353918 280,174.27089177353918Z" style="stroke: rgb(68, 68, 68); stroke-opacity: 1; fill: rgb(240, 240, 245); fill-opacity: 0.65; stroke-width: 0; opacity: 1;"/><path class="sankey-link" d="M280,184.27089177353918C335,184.27089177353918 335,196.700578788928 390,196.700578788928L390,203.09574925454592C335,203.09574925454592 335,190.6660622391571 280,190.6660622391571Z" style="stroke: rgb(68, 68, 68); stroke-opacity: 1; fill: rgb(240, 240, 245); fill-opacity: 0.65; stroke-width: 0; opacity: 1;"/><path class="sankey-link" d="M280,236.6259062808616C335,236.6259062808616 335,219.0555932962506 390,219.0555932962506L390,250.83236110852857C335,250.83236110852857 335,268.4026740931396 280,268.4026740931396Z" style="stroke: rgb(68, 68, 68); stroke-opacity: 1; fill: rgb(240, 240, 245); fill-opacity: 0.65; stroke-width: 0; opacity: 1;"/><path class="sankey-link" d="M280,299.8574187360933C335,299.8574187360933 335,252.28710575148236 390,252.28710575148236L390,252.2994406770715C335,252.2994406770715 335,299.8697536616824 280,299.8697536616824Z" style="stroke: rgb(240, 240, 245); stroke-opacity: 0.65; fill: rgb(240, 240, 245); fill-opacity: 0.65; stroke-width: 1; opacity: 1;"/><path class="sankey-link" d="M280,309.8697536616824C335,309.8697536616824 335,252.29944067707146 390,252.29944067707146L390,252.31397469482374C335,252.31397469482374 335,309.88428767943475 280,309.88428767943475Z" style="stroke: rgb(240, 240, 245); stroke-opacity: 0.65; fill: rgb(240, 240, 245); fill-opacity: 0.65; stroke-width: 1; opacity: 1;"/><path class="sankey-link" d="M280,319.8842876794347C335,319.8842876794347 335,252.31397469482377 390,252.31397469482377L390,252.42968701538913C335,252.42968701538913 335,320 280,320Z" style="stroke: rgb(240, 240, 245); stroke-opacity: 0.65; fill: rgb(240, 240, 245); fill-opacity: 0.65; stroke-width: 1; opacity: 1;"/><path class="sankey-link" d="M280,278.4026740931395C335,278.4026740931395 335,250.83236110852857 390,250.83236110852857L390,251.49297751785872C335,251.49297751785872 335,279.06329050246967 280,279.06329050246967Z" style="stroke: rgb(240, 240, 245); stroke-opacity: 0.65; fill: rgb(240, 240, 245); fill-opacity: 0.65; stroke-width: 1; opacity: 1;"/><path class="sankey-link" d="M280,289.06329050246967C335,289.06329050246967 335,251.49297751785872 390,251.49297751785872L390,252.28710575148233C335,252.28710575148233 335,289.8574187360933 280,289.8574187360933Z" style="stroke: rgb(240, 240, 245); stroke-opacity: 0.65; fill: rgb(240, 240, 245); fill-opacity: 0.65; stroke-width: 1; opacity: 1;"/><path class="sankey-link" d="M410,42.429687015389085C465,42.429687015389085 465,40.714715410261356 520,40.714715410261356L520,160.0918131595007C465,160.0918131595007 465,161.80678476462845 410,161.80678476462845Z" style="stroke: rgb(68, 68, 68); stroke-opacity: 1; fill: rgb(240, 240, 245); fill-opacity: 0.65; stroke-width: 0; opacity: 1;"/><path class="sankey-link" d="M410,200.65948195354105C465,200.65948195354105 465,258.2042177887935 520,258.2042177887935L520,263.70974575176257C465,263.70974575176257 465,206.16500991651014 410,206.16500991651014Z" style="stroke: rgb(68, 68, 68); stroke-opacity: 1; fill: rgb(240, 240, 245); fill-opacity: 0.65; stroke-width: 0; opacity: 1;"/><path class="sankey-link" d="M410,208.96216012932342C465,208.96216012932342 465,299.7711146323614 520,299.7711146323614L520,299.8645477992886C465,299.8645477992886 465,209.0555932962506 410,209.0555932962506Z" style="stroke: rgb(240, 240, 245); stroke-opacity: 0.65; fill: rgb(240, 240, 245); fill-opacity: 0.65; stroke-width: 1; opacity: 1;"/><path class="sankey-link" d="M410,206.16500991651014C465,206.16500991651014 465,273.7097457517626 520,273.7097457517626L520,273.7726364614857C465,273.7726364614857 465,206.2279006262333 410,206.2279006262333Z" style="stroke: rgb(240, 240, 245); stroke-opacity: 0.65; fill: rgb(240, 240, 245); fill-opacity: 0.65; stroke-width: 1; opacity: 1;"/><path class="sankey-link" d="M410,161.80678476462845C465,161.80678476462845 465,198.69090419055095 520,198.69090419055095L520,219.2818662588988C465,219.2818662588988 465,182.39774683297628 410,182.39774683297628Z" style="stroke: rgb(68, 68, 68); stroke-opacity: 1; fill: rgb(240, 240, 245); fill-opacity: 0.65; stroke-width: 0; opacity: 1;"/><path class="sankey-link" d="M410,206.2279006262333C465,206.2279006262333 465,283.7726364614858 520,283.7726364614858L520,286.5068959645759C465,286.5068959645759 465,208.96216012932342 410,208.96216012932342Z" style="stroke: rgb(68, 68, 68); stroke-opacity: 1; fill: rgb(240, 240, 245); fill-opacity: 0.65; stroke-width: 0; opacity: 1;"/><path class="sankey-link" d="M410,182.39774683297628C465,182.39774683297628 465,229.94248266822893 520,229.94248266822893L520,248.2042177887937C465,248.2042177887937 465,200.65948195354105 410,200.65948195354105Z" style="stroke: rgb(68, 68, 68); stroke-opacity: 1; fill: rgb(240, 240, 245); fill-opacity: 0.65; stroke-width: 0; opacity: 1;"/><path class="sankey-link" d="M410,219.0555932962506C465,219.0555932962506 465,160.0918131595007 520,160.0918131595007L520,188.6909041905509C465,188.6909041905509 465,247.6546843273008 410,247.6546843273008Z" style="stroke: rgb(68, 68, 68); stroke-opacity: 1; fill: rgb(240, 240, 245); fill-opacity: 0.65; stroke-width: 0; opacity: 1;"/><path class="sankey-link" d="M410,251.5795194044164C465,251.5795194044164 465,299.8645477992886 520,299.8645477992886L520,299.97447450382566C465,299.97447450382566 465,251.6894461089535 410,251.6894461089535Z" style="stroke: rgb(240, 240, 245); stroke-opacity: 0.65; fill: rgb(240, 240, 245); fill-opacity: 0.65; stroke-width: 1; opacity: 1;"/><path class="sankey-link" d="M410,251.6894461089535C465,251.6894461089535 465,309.97447450382566 520,309.97447450382566L520,309.98619268313536C465,309.98619268313536 465,251.70116428826313 410,251.70116428826313Z" style="stroke: rgb(240, 240, 245); stroke-opacity: 0.65; fill: rgb(240, 240, 245); fill-opacity: 0.65; stroke-width: 1; opacity: 1;"/><path class="sankey-link" d="M410,251.70116428826316C465,251.70116428826316 465,319.9861926831353 520,319.9861926831353L520,320C465,320 465,251.71497160512786 410,251.71497160512786Z" style="stroke: rgb(240, 240, 245); stroke-opacity: 0.65; fill: rgb(240, 240, 245); fill-opacity: 0.65; stroke-width: 1; opacity: 1;"/><path class="sankey-link" d="M410,247.65468432730077C465,247.65468432730077 465,219.2818662588988 520,219.2818662588988L520,219.94248266822893C465,219.94248266822893 465,248.31530073663092 410,248.31530073663092Z" style="stroke: rgb(240, 240, 245); stroke-opacity: 0.65; fill: rgb(240, 240, 245); fill-opacity: 0.65; stroke-width: 1; opacity: 1;"/><path class="sankey-link" d="M410,248.31530073663092C465,248.31530073663092 465,286.5068959645759 520,286.5068959645759L520,289.7711146323614C465,289.7711146323614 465,251.5795194044164 410,251.5795194044164Z" style="stroke: rgb(68, 68, 68); stroke-opacity: 1; fill: rgb(240, 240, 245); fill-opacity: 0.65; stroke-width: 0; opacity: 1;"/></g><g class="sankey-node-set" style="cursor: move;"><g class="sankey-node" transform="translate(0.000,41.841)" style="opacity: 1;"><rect class="node-rect" width="20" height="199.99999999393708" style="stroke-width: 0.5; stroke: rgb(0, 0, 0); stroke-opacity: 1; fill: rgb(255, 243, 217); fill-opacity: 1;"/><text class="node-label" data-notex="1" x="0" y="0" text-anchor="start" transform="translate(23.25,103.49999999696854)" style="cursor: default; font-family: 'Times New Roman'; font-size: 10px; fill: rgb(42, 63, 95); fill-opacity: 1; white-space: pre; text-shadow: white 1px 1px 1px, white -1px -1px 1px, white 1px -1px 1px, white -1px 1px 1px;"></text></g><g class="sankey-node" transform="translate(130.000,52.170)" style="opacity: 1;"><rect class="node-rect" width="20" height="166.62590628086153" style="stroke-width: 0.5; stroke: rgb(0, 0, 0); stroke-opacity: 1; fill: rgb(199, 219, 244); fill-opacity: 1;"/><text class="node-label" data-notex="1" x="0" y="0" text-anchor="start" transform="translate(23.25,86.81295314043076)" style="cursor: default; font-family: 'Times New Roman'; font-size: 10px; fill: rgb(42, 63, 95); fill-opacity: 1; white-space: pre; text-shadow: white 1px 1px 1px, white -1px -1px 1px, white 1px -1px 1px, white -1px 1px 1px;"></text></g><g class="sankey-node" transform="translate(130.000,228.796)" style="opacity: 1;"><rect class="node-rect" width="20" height="33.37409371913847" style="stroke-width: 0.5; stroke: rgb(0, 0, 0); stroke-opacity: 1; fill: rgb(215, 250, 245); fill-opacity: 1;"/><text class="node-label" data-notex="1" x="0" y="0" text-anchor="start" transform="translate(23.25,20.187046859569236)" style="cursor: default; font-family: 'Times New Roman'; font-size: 10px; fill: rgb(42, 63, 95); fill-opacity: 1; white-space: pre; text-shadow: white 1px 1px 1px, white -1px -1px 1px, white 1px -1px 1px, white -1px 1px 1px;"></text></g><g class="sankey-node" transform="translate(260.000,0.000)" style="opacity: 1;"><rect class="node-rect" width="20" height="121.81336505024417" style="stroke-width: 0.5; stroke: rgb(0, 0, 0); stroke-opacity: 1; fill: rgb(199, 219, 244); fill-opacity: 1;"/><text class="node-label" data-notex="1" x="0" y="0" text-anchor="start" transform="translate(23.25,64.40668252512208)" style="cursor: default; font-family: 'Times New Roman'; font-size: 10px; fill: rgb(42, 63, 95); fill-opacity: 1; white-space: pre; text-shadow: white 1px 1px 1px, white -1px -1px 1px, white 1px -1px 1px, white -1px 1px 1px;"></text></g><g class="sankey-node" transform="translate(260.000,200.666)" style="opacity: 1;"><rect class="node-rect" width="20" height="5.795292592598912" style="stroke-width: 0.5; stroke: rgb(0, 0, 0); stroke-opacity: 1; fill: rgb(199, 219, 244); fill-opacity: 1;"/><text class="node-label" data-notex="1" x="0" y="0" text-anchor="start" transform="translate(23.25,6.397646296299456)" style="cursor: default; font-family: 'Times New Roman'; font-size: 10px; fill: rgb(42, 63, 95); fill-opacity: 1; white-space: pre; text-shadow: white 1px 1px 1px, white -1px -1px 1px, white 1px -1px 1px, white -1px 1px 1px;"></text></g><g class="sankey-node" transform="translate(260.000,216.461)" style="opacity: 1;"><rect class="node-rect" width="20" height="0.5" style="stroke-width: 0.5; stroke: rgb(0, 0, 0); stroke-opacity: 1; fill: rgb(199, 219, 244); fill-opacity: 1;"/><text class="node-label" data-notex="1" x="0" y="0" text-anchor="start" transform="translate(23.25,3.75)" style="cursor: default; font-family: 'Times New Roman'; font-size: 10px; fill: rgb(42, 63, 95); fill-opacity: 1; white-space: pre; text-shadow: white 1px 1px 1px, white -1px -1px 1px, white 1px -1px 1px, white -1px 1px 1px;"></text></g><g class="sankey-node" transform="translate(260.000,226.528)" style="opacity: 1;"><rect class="node-rect" width="20" height="0.5" style="stroke-width: 0.5; stroke: rgb(0, 0, 0); stroke-opacity: 1; fill: rgb(199, 219, 244); fill-opacity: 1;"/><text class="node-label" data-notex="1" x="0" y="0" text-anchor="start" transform="translate(23.25,3.75)" style="cursor: default; font-family: 'Times New Roman'; font-size: 10px; fill: rgb(42, 63, 95); fill-opacity: 1; white-space: pre; text-shadow: white 1px 1px 1px, white -1px -1px 1px, white 1px -1px 1px, white -1px 1px 1px;"></text></g><g class="sankey-node" transform="translate(260.000,131.813)" style="opacity: 1;"><rect class="node-rect" width="20" height="20.590962068347864" style="stroke-width: 0.5; stroke: rgb(0, 0, 0); stroke-opacity: 1; fill: rgb(199, 219, 244); fill-opacity: 1;"/><text class="node-label" data-notex="1" x="0" y="0" text-anchor="start" transform="translate(23.25,13.795481034173932)" style="cursor: default; font-family: 'Times New Roman'; font-size: 10px; fill: rgb(42, 63, 95); fill-opacity: 1; white-space: pre; text-shadow: white 1px 1px 1px, white -1px -1px 1px, white 1px -1px 1px, white -1px 1px 1px;"></text></g><g class="sankey-node" transform="translate(260.000,162.404)" style="opacity: 1;"><rect class="node-rect" width="20" height="11.866564654946842" style="stroke-width: 0.5; stroke: rgb(0, 0, 0); stroke-opacity: 1; fill: rgb(199, 219, 244); fill-opacity: 1;"/><text class="node-label" data-notex="1" x="0" y="0" text-anchor="start" transform="translate(23.25,9.433282327473421)" style="cursor: default; font-family: 'Times New Roman'; font-size: 10px; fill: rgb(42, 63, 95); fill-opacity: 1; white-space: pre; text-shadow: white 1px 1px 1px, white -1px -1px 1px, white 1px -1px 1px, white -1px 1px 1px;"></text></g><g class="sankey-node" transform="translate(260.000,184.271)" style="opacity: 1;"><rect class="node-rect" width="20" height="6.395170465617923" style="stroke-width: 0.5; stroke: rgb(0, 0, 0); stroke-opacity: 1; fill: rgb(199, 219, 244); fill-opacity: 1;"/><text class="node-label" data-notex="1" x="0" y="0" text-anchor="start" transform="translate(23.25,6.697585232808962)" style="cursor: default; font-family: 'Times New Roman'; font-size: 10px; fill: rgb(42, 63, 95); fill-opacity: 1; white-space: pre; text-shadow: white 1px 1px 1px, white -1px -1px 1px, white 1px -1px 1px, white -1px 1px 1px;"></text></g><g class="sankey-node" transform="translate(260.000,236.626)" style="opacity: 1;"><rect class="node-rect" width="20" height="31.77676781227791" style="stroke-width: 0.5; stroke: rgb(0, 0, 0); stroke-opacity: 1; fill: rgb(215, 250, 245); fill-opacity: 1;"/><text class="node-label" data-notex="1" x="0" y="0" text-anchor="start" transform="translate(23.25,19.388383906138955)" style="cursor: default; font-family: 'Times New Roman'; font-size: 10px; fill: rgb(42, 63, 95); fill-opacity: 1; white-space: pre; text-shadow: white 1px 1px 1px, white -1px -1px 1px, white 1px -1px 1px, white -1px 1px 1px;"></text></g><g class="sankey-node" transform="translate(260.000,299.857)" style="opacity: 1;"><rect class="node-rect" width="20" height="0.5" style="stroke-width: 0.5; stroke: rgb(0, 0, 0); stroke-opacity: 1; fill: rgb(215, 250, 245); fill-opacity: 1;"/><text class="node-label" data-notex="1" x="0" y="0" text-anchor="start" transform="translate(23.25,3.75)" style="cursor: default; font-family: 'Times New Roman'; font-size: 10px; fill: rgb(42, 63, 95); fill-opacity: 1; white-space: pre; text-shadow: white 1px 1px 1px, white -1px -1px 1px, white 1px -1px 1px, white -1px 1px 1px;"></text></g><g class="sankey-node" transform="translate(260.000,309.870)" style="opacity: 1;"><rect class="node-rect" width="20" height="0.5" style="stroke-width: 0.5; stroke: rgb(0, 0, 0); stroke-opacity: 1; fill: rgb(215, 250, 245); fill-opacity: 1;"/><text class="node-label" data-notex="1" x="0" y="0" text-anchor="start" transform="translate(23.25,3.75)" style="cursor: default; font-family: 'Times New Roman'; font-size: 10px; fill: rgb(42, 63, 95); fill-opacity: 1; white-space: pre; text-shadow: white 1px 1px 1px, white -1px -1px 1px, white 1px -1px 1px, white -1px 1px 1px;"></text></g><g class="sankey-node" transform="translate(260.000,319.884)" style="opacity: 1;"><rect class="node-rect" width="20" height="0.5" style="stroke-width: 0.5; stroke: rgb(0, 0, 0); stroke-opacity: 1; fill: rgb(215, 250, 245); fill-opacity: 1;"/><text class="node-label" data-notex="1" x="0" y="0" text-anchor="start" transform="translate(23.25,3.75)" style="cursor: default; font-family: 'Times New Roman'; font-size: 10px; fill: rgb(42, 63, 95); fill-opacity: 1; white-space: pre; text-shadow: white 1px 1px 1px, white -1px -1px 1px, white 1px -1px 1px, white -1px 1px 1px;"></text></g><g class="sankey-node" transform="translate(260.000,278.403)" style="opacity: 1;"><rect class="node-rect" width="20" height="0.6606164093301459" style="stroke-width: 0.5; stroke: rgb(0, 0, 0); stroke-opacity: 1; fill: rgb(215, 250, 245); fill-opacity: 1;"/><text class="node-label" data-notex="1" x="0" y="0" text-anchor="start" transform="translate(23.25,3.830308204665073)" style="cursor: default; font-family: 'Times New Roman'; font-size: 10px; fill: rgb(42, 63, 95); fill-opacity: 1; white-space: pre; text-shadow: white 1px 1px 1px, white -1px -1px 1px, white 1px -1px 1px, white -1px 1px 1px;"></text></g><g class="sankey-node" transform="translate(260.000,289.063)" style="opacity: 1;"><rect class="node-rect" width="20" height="0.79412823362361" style="stroke-width: 0.5; stroke: rgb(0, 0, 0); stroke-opacity: 1; fill: rgb(215, 250, 245); fill-opacity: 1;"/><text class="node-label" data-notex="1" x="0" y="0" text-anchor="start" transform="translate(23.25,3.897064116811805)" style="cursor: default; font-family: 'Times New Roman'; font-size: 10px; fill: rgb(42, 63, 95); fill-opacity: 1; white-space: pre; text-shadow: white 1px 1px 1px, white -1px -1px 1px, white 1px -1px 1px, white -1px 1px 1px;"></text></g><g class="sankey-node" transform="translate(390.000,42.430)" style="opacity: 1;"><rect class="node-rect" width="20" height="166.62590628086153" style="stroke-width: 0.5; stroke: rgb(0, 0, 0); stroke-opacity: 1; fill: rgb(199, 219, 244); fill-opacity: 1;"/><text class="node-label" data-notex="1" x="0" y="0" text-anchor="start" transform="translate(23.25,86.81295314043076)" style="cursor: default; font-family: 'Times New Roman'; font-size: 10px; fill: rgb(42, 63, 95); fill-opacity: 1; white-space: pre; text-shadow: white 1px 1px 1px, white -1px -1px 1px, white 1px -1px 1px, white -1px 1px 1px;"></text></g><g class="sankey-node" transform="translate(390.000,219.056)" style="opacity: 1;"><rect class="node-rect" width="20" height="33.374093719138614" style="stroke-width: 0.5; stroke: rgb(0, 0, 0); stroke-opacity: 1; fill: rgb(215, 250, 245); fill-opacity: 1;"/><text class="node-label" data-notex="1" x="0" y="0" text-anchor="start" transform="translate(23.25,20.187046859569307)" style="cursor: default; font-family: 'Times New Roman'; font-size: 10px; fill: rgb(42, 63, 95); fill-opacity: 1; white-space: pre; text-shadow: white 1px 1px 1px, white -1px -1px 1px, white 1px -1px 1px, white -1px 1px 1px;"></text></g><g class="sankey-node" transform="translate(520.000,40.715)" style="opacity: 1;"><rect class="node-rect" width="20" height="147.9761887802896" style="stroke-width: 0.5; stroke: rgb(0, 0, 0); stroke-opacity: 1; fill: rgb(217, 240, 217); fill-opacity: 1;"/><text class="node-label" data-notex="1" x="0" y="0" text-anchor="end" transform="translate(-3.25,77.4880943901448)" style="cursor: default; font-family: 'Times New Roman'; font-size: 10px; fill: rgb(42, 63, 95); fill-opacity: 1; white-space: pre; text-shadow: white 1px 1px 1px, white -1px -1px 1px, white 1px -1px 1px, white -1px 1px 1px;"></text></g><g class="sankey-node" transform="translate(520.000,258.204)" style="opacity: 1;"><rect class="node-rect" width="20" height="5.505527962969097" style="stroke-width: 0.5; stroke: rgb(0, 0, 0); stroke-opacity: 1; fill: rgb(217, 240, 217); fill-opacity: 1;"/><text class="node-label" data-notex="1" x="0" y="0" text-anchor="end" transform="translate(-3.25,6.252763981484549)" style="cursor: default; font-family: 'Times New Roman'; font-size: 10px; fill: rgb(42, 63, 95); fill-opacity: 1; white-space: pre; text-shadow: white 1px 1px 1px, white -1px -1px 1px, white 1px -1px 1px, white -1px 1px 1px;"></text></g><g class="sankey-node" transform="translate(520.000,299.771)" style="opacity: 1;"><rect class="node-rect" width="20" height="0.5" style="stroke-width: 0.5; stroke: rgb(0, 0, 0); stroke-opacity: 1; fill: rgb(217, 240, 217); fill-opacity: 1;"/><text class="node-label" data-notex="1" x="0" y="0" text-anchor="end" transform="translate(-3.25,3.75)" style="cursor: default; font-family: 'Times New Roman'; font-size: 10px; fill: rgb(42, 63, 95); fill-opacity: 1; white-space: pre; text-shadow: white 1px 1px 1px, white -1px -1px 1px, white 1px -1px 1px, white -1px 1px 1px;"></text></g><g class="sankey-node" transform="translate(520.000,273.710)" style="opacity: 1;"><rect class="node-rect" width="20" height="0.5" style="stroke-width: 0.5; stroke: rgb(0, 0, 0); stroke-opacity: 1; fill: rgb(217, 240, 217); fill-opacity: 1;"/><text class="node-label" data-notex="1" x="0" y="0" text-anchor="end" transform="translate(-3.25,3.75)" style="cursor: default; font-family: 'Times New Roman'; font-size: 10px; fill: rgb(42, 63, 95); fill-opacity: 1; white-space: pre; text-shadow: white 1px 1px 1px, white -1px -1px 1px, white 1px -1px 1px, white -1px 1px 1px;"></text></g><g class="sankey-node" transform="translate(520.000,309.974)" style="opacity: 1;"><rect class="node-rect" width="20" height="0.5" style="stroke-width: 0.5; stroke: rgb(0, 0, 0); stroke-opacity: 1; fill: rgb(217, 240, 217); fill-opacity: 1;"/><text class="node-label" data-notex="1" x="0" y="0" text-anchor="end" transform="translate(-3.25,3.75)" style="cursor: default; font-family: 'Times New Roman'; font-size: 10px; fill: rgb(42, 63, 95); fill-opacity: 1; white-space: pre; text-shadow: white 1px 1px 1px, white -1px -1px 1px, white 1px -1px 1px, white -1px 1px 1px;"></text></g><g class="sankey-node" transform="translate(520.000,319.986)" style="opacity: 1;"><rect class="node-rect" width="20" height="0.5" style="stroke-width: 0.5; stroke: rgb(0, 0, 0); stroke-opacity: 1; fill: rgb(217, 240, 217); fill-opacity: 1;"/><text class="node-label" data-notex="1" x="0" y="0" text-anchor="end" transform="translate(-3.25,3.75)" style="cursor: default; font-family: 'Times New Roman'; font-size: 10px; fill: rgb(42, 63, 95); fill-opacity: 1; white-space: pre; text-shadow: white 1px 1px 1px, white -1px -1px 1px, white 1px -1px 1px, white -1px 1px 1px;"></text></g><g class="sankey-node" transform="translate(520.000,198.691)" style="opacity: 1;"><rect class="node-rect" width="20" height="21.25157847767798" style="stroke-width: 0.5; stroke: rgb(0, 0, 0); stroke-opacity: 1; fill: rgb(217, 240, 217); fill-opacity: 1;"/><text class="node-label" data-notex="1" x="0" y="0" text-anchor="end" transform="translate(-3.25,14.12578923883899)" style="cursor: default; font-family: 'Times New Roman'; font-size: 10px; fill: rgb(42, 63, 95); fill-opacity: 1; white-space: pre; text-shadow: white 1px 1px 1px, white -1px -1px 1px, white 1px -1px 1px, white -1px 1px 1px;"></text></g><g class="sankey-node" transform="translate(520.000,283.773)" style="opacity: 1;"><rect class="node-rect" width="20" height="5.9984781708756145" style="stroke-width: 0.5; stroke: rgb(0, 0, 0); stroke-opacity: 1; fill: rgb(247, 145, 116); fill-opacity: 1;"/><text class="node-label" data-notex="1" x="0" y="0" text-anchor="end" transform="translate(-3.25,6.499239085437807)" style="cursor: default; font-family: 'Times New Roman'; font-size: 10px; fill: rgb(42, 63, 95); fill-opacity: 1; white-space: pre; text-shadow: white 1px 1px 1px, white -1px -1px 1px, white 1px -1px 1px, white -1px 1px 1px;"></text></g><g class="sankey-node" transform="translate(520.000,229.942)" style="opacity: 1;"><rect class="node-rect" width="20" height="18.261735120564595" style="stroke-width: 0.5; stroke: rgb(0, 0, 0); stroke-opacity: 1; fill: rgb(192, 232, 131); fill-opacity: 1;"/><text class="node-label" data-notex="1" x="0" y="0" text-anchor="end" transform="translate(-3.25,12.630867560282297)" style="cursor: default; font-family: 'Times New Roman'; font-size: 10px; fill: rgb(42, 63, 95); fill-opacity: 1; white-space: pre; text-shadow: white 1px 1px 1px, white -1px -1px 1px, white 1px -1px 1px, white -1px 1px 1px;"></text></g></g></g><defs id="topdefs-fc4d6a"><g class="clips"/></defs><g class="layer-above"><g class="imagelayer"/><g class="shapelayer"/></g><g class="infolayer"><g class="g-gtitle"/><g class="first-render"/></g></svg>